<?xml version="1.0" encoding="UTF-8" standalone="no"?>
<!DOCTYPE svg PUBLIC "-//W3C//DTD SVG 1.1//EN" "http://www.w3.org/Graphics/SVG/1.1/DTD/svg11.dtd">
<svg width="100%" height="100%" viewBox="0 0 600 400" version="1.1" xmlns="http://www.w3.org/2000/svg" xmlns:xlink="http://www.w3.org/1999/xlink" xml:space="preserve" xmlns:serif="http://www.serif.com/" style="fill-rule:evenodd;clip-rule:evenodd;stroke-linejoin:round;stroke-miterlimit:2;">
    <g id="surface1" transform="matrix(1,0,0,1,0,-100)">
        <rect x="0" y="0" width="600" height="600" style="fill:rgb(254,254,254);"/>
        <rect x="0" y="0" width="600" height="600" style="fill:rgb(254,254,254);"/>
        <rect x="0" y="0" width="600" height="600" style="fill:rgb(254,254,254);"/>
        <path d="M471.984,465.656L127.227,465.656C115.426,465.656 105.813,456.004 105.813,444.152L105.813,156.504C105.813,144.656 115.426,135 127.227,135L471.984,135C483.785,135 493.402,144.656 493.402,156.504L493.402,444.152C493.402,456.004 483.785,465.656 471.984,465.656Z" style="fill:rgb(55,124,254);fill-rule:nonzero;"/>
        <path d="M401.73,439.859L401.73,438.336L402.047,438.367C402.809,438.445 403.578,438.484 404.34,438.484C410.367,438.484 416.23,435.969 420.434,431.574C424.676,427.145 426.859,421.316 426.59,415.176L421.82,307.438C421.113,291.434 408.012,278.902 391.996,278.902L380.133,278.902L367.422,278.75L367.301,278.465L367.211,278.441L367.152,278.375L363.277,273.582C362.668,272.832 361.934,272.168 361.086,271.613L360.77,271.402L361.059,271.156C364.457,268.266 366.859,264.285 367.82,259.953L367.859,259.785L368.023,259.742C376.871,257.266 383.051,249.113 383.051,239.922C383.051,236.543 382.215,233.191 380.629,230.23L380.527,230.035L380.688,229.887C384.891,225.949 387.203,220.613 387.203,214.863C387.203,206.379 381.875,198.645 373.941,195.625L374.082,195.082C373.406,194.98 372.695,194.902 371.957,194.852L371.688,194.832L371.699,194.359C371.703,194.238 371.707,194.117 371.707,193.996C371.707,182.645 362.473,173.41 351.121,173.41C349.234,173.41 347.352,173.672 345.523,174.188L345.305,173.664C344.727,174.008 344.16,174.391 343.609,174.816L343.578,174.84C343.578,174.84 343.246,174.973 343.172,175.004L342.887,175.121L342.789,174.832C339.813,166.016 331.559,160.094 322.254,160.094C315.281,160.094 308.691,163.484 304.621,169.164L304.441,169.414L304.203,169.219C304.066,169.102 303.867,168.941 303.609,168.754L303.34,169.238C301.285,168.426 299.117,168.016 296.906,168.016C287.215,168.016 279.328,175.902 279.328,185.594C279.328,185.836 279.336,186.078 279.348,186.316L279.355,186.539L279.141,186.602C271.734,188.793 266.559,195.723 266.559,203.453C266.559,208.242 268.453,212.719 271.891,216.059L272.066,216.227L271.688,216.777L271.613,216.809C271.359,216.926 271.074,217.078 270.773,217.273L271.156,217.637C269.609,220.305 268.793,223.348 268.793,226.438C268.793,233.426 272.934,239.75 279.34,242.551L279.602,242.664L279.484,242.926C278.473,245.191 277.961,247.602 277.961,250.086C277.961,257.367 282.344,263.789 289.125,266.453L289.211,266.484L289.262,266.566C291.559,270.234 295.297,272.852 299.516,273.75L299.902,273.832L299.656,274.254L299.559,274.324L299.559,274.418L297.316,278.285L297.172,278.297L297.117,278.324L279.051,278.902C267.117,278.902 256.395,288.602 255.137,300.527L254.215,309.273L253.926,309.234C253.379,309.164 252.895,309.129 252.441,309.129L251.902,309.129L251.871,309.121C251.027,308.938 250.188,308.844 249.383,308.844L249.383,309.129L233.125,309.129L231.379,305.219C231.164,304.738 230.688,304.43 230.16,304.43L218.992,304.43L218.93,304.223C217.699,300.082 213.328,296.711 209.191,296.711C207.281,296.711 205.695,297.434 204.719,298.742C203.676,300.137 203.438,302.027 204.043,304.063L204.152,304.43L195.867,304.43C195.41,304.43 194.992,304.656 194.746,305.035C194.5,305.418 194.465,305.891 194.648,306.305L195.91,309.129L185.691,309.129C182.141,309.129 178.859,310.738 176.691,313.551C174.52,316.363 173.793,319.941 174.691,323.375L181.164,348.078L177.547,370.355C177.383,371.117 177.273,371.789 177.219,372.371C176.676,378.043 177.613,390.73 178.758,397.141C179.285,400.086 183.617,400.703 187.156,400.703C189.32,400.703 191.793,400.484 194.52,400.051L194.773,400.012L198,412.328C199.309,417.324 203.832,420.813 208.996,420.813L242.457,420.813L240.449,439.859L401.73,439.859ZM364.98,175.969C364.926,175.926 359.43,171.656 352.711,171.656C350.297,171.656 348.023,172.215 345.926,173.32C348.023,172.215 350.305,171.656 352.719,171.656C359.402,171.656 364.926,175.926 364.98,175.969Z" style="fill:rgb(152,83,59);fill-rule:nonzero;"/>
        <g>
            <path d="M332.098,298.75C340.105,298.75 347.238,295.922 351.84,291.535L352.129,287.879L352.586,282.117C351.949,284.16 350.164,286.012 347.578,287.5C343.691,289.734 337.988,291.148 331.625,291.148C326.207,291.148 321.266,290.125 317.516,288.438C313.156,286.477 310.406,283.621 310.406,280.441C310.406,280.398 310.414,280.352 310.414,280.305L310.414,278.617L310.332,278.617L309.922,286.676L309.824,288.594C314.012,294.621 322.422,298.75 332.098,298.75ZM326.602,420.758L325.867,425.965L340.469,428.41C340.445,428.563 340.547,428.711 340.703,428.738L340.961,428.781L340.059,440.145L302.09,440.145L303.422,414.031L326.602,420.758ZM325.418,376.898C324.754,375.965 323.996,375.121 323.172,374.363L321.27,371.848C317.473,366.82 312.098,363.199 306.094,361.711L309.777,289.492C314.199,295.355 322.543,299.32 332.098,299.32C339.992,299.32 347.059,296.617 351.773,292.371L344.82,380.074L332.605,379.125L325.418,376.898ZM352.863,278.617L352.801,279.41L352.801,278.617L352.863,278.617Z" style="fill-rule:nonzero;"/>
        </g>
        <path d="M331.625,291.148C337.988,291.148 343.691,289.734 347.578,287.5C350.164,286.012 351.949,284.16 352.586,282.117L352.719,280.441L352.781,279.648L352.801,279.41L352.801,275.723L352.805,269.734L352.813,258.422L352.816,250.086L350.715,240.621L350.516,239.711L350.156,238.102L348.703,240.66L346.043,245.324L343.801,249.258L339.535,256.746L340.059,257.332L334.465,265.66C334.578,265.738 334.625,265.887 334.566,266.016C334.496,266.16 333.805,267.527 331.98,269.156C331.766,269.348 331.535,269.543 331.289,269.738C330.191,270.613 328.773,271.527 326.953,272.352C325.293,273.18 323.516,273.773 321.668,274.098C320.105,274.457 318.367,274.738 316.434,274.91C315.43,275 314.371,275.059 313.258,275.086C312.852,275.094 312.445,275.102 312.023,275.102C311.5,275.102 310.961,275.094 310.414,275.082L310.414,280.305C310.414,280.352 310.406,280.398 310.406,280.441C310.406,283.621 313.156,286.477 317.516,288.438C321.266,290.125 326.207,291.148 331.625,291.148ZM322.941,238.52L343.453,221.23C341,220.355 333.738,217.383 330.906,212.055C329.258,208.953 328.434,205.727 328.035,202.961C327.43,198.754 327.816,195.613 327.816,195.613C327.816,195.613 322.926,202.852 314.566,199.863C313.68,199.543 312.914,199.152 312.254,198.711C313.195,199.785 314.34,200.723 315.703,201.297C318.461,202.453 321.68,201.945 325.266,199.785C325.402,199.703 325.578,199.746 325.66,199.879C325.738,200.016 325.695,200.191 325.563,200.273C323.129,201.738 320.852,202.473 318.746,202.473C317.605,202.473 316.516,202.254 315.484,201.82C313.262,200.891 311.617,199.098 310.434,197.25C310.336,197.094 310.238,196.934 310.145,196.777C308.898,195.211 308.375,193.508 308.16,192.332C307.969,191.734 307.871,191.34 307.855,191.27C307.844,191.227 307.848,191.184 307.855,191.145C307.516,191.805 306.586,193.559 305.246,195.672C304.277,197.203 303.094,198.922 301.762,200.559C300.98,201.516 300.148,202.449 299.277,203.293C298.352,204.195 297.383,204.996 296.387,205.637C292.043,208.43 289.141,208.195 287.535,207.586C287.5,207.871 287.465,208.219 287.43,208.609C287.238,210.781 287.125,214.535 287.902,219C287.93,219.156 287.824,219.305 287.668,219.332C287.652,219.336 287.637,219.336 287.621,219.336C287.484,219.336 287.363,219.238 287.34,219.098C286.559,214.602 286.668,210.805 286.859,208.59C286.863,208.563 286.863,208.543 286.867,208.516C286.859,208.539 286.855,208.566 286.848,208.59C285.93,212.289 285.457,216.438 285.563,221.078C285.563,221.133 285.563,221.195 285.566,221.254C285.645,224.777 285.719,229.895 285.836,235.094C285.883,237.176 285.938,239.273 286,241.285L297.473,240.426L309.922,239.496L322.941,238.52ZM310.41,227.227C310.352,225.875 311.051,224.742 311.973,224.703C312.895,224.66 313.691,225.727 313.75,227.082C313.809,228.434 313.109,229.566 312.188,229.605C311.266,229.648 310.469,228.582 310.41,227.227ZM297.203,239.848L299.102,232.582L301.18,224.629C301.219,224.477 301.371,224.387 301.527,224.426C301.68,224.465 301.77,224.621 301.73,224.773L299.656,232.707L297.758,239.992C297.723,240.121 297.605,240.207 297.48,240.207C297.457,240.207 297.434,240.203 297.41,240.195C297.258,240.156 297.164,240 297.203,239.848ZM294.641,229.605C293.719,229.648 292.922,228.582 292.863,227.227C292.805,225.875 293.504,224.742 294.426,224.703C295.348,224.66 296.145,225.727 296.203,227.082C296.262,228.434 295.563,229.566 294.641,229.605ZM308,190.855C308,190.855 308,190.895 308.004,190.957C307.969,190.977 307.938,190.996 307.914,191.027C307.969,190.922 308,190.855 308,190.855ZM315.754,274.391C315.18,274.434 314.59,274.469 313.984,274.492C313.621,274.508 313.246,274.516 312.875,274.52C312.078,274.535 311.266,274.535 310.414,274.512L310.414,274.391L315.754,274.391ZM351.281,235.207C350.719,235.242 350.129,235.25 349.516,235.215L349.973,237.273L347.766,241.148L344.504,246.875L343.504,248.633L339.137,256.297L337.246,254.184L332.668,249.063L329.43,245.438L323.5,238.797L343.41,222.016L343.332,221.852C343.332,221.852 343.527,221.668 343.875,221.379C344.273,221.047 344.867,220.578 345.609,220.066C345.824,219.918 346.055,219.762 346.297,219.609C347.504,218.84 348.988,218.051 350.582,217.566C353.305,216.734 356.336,216.797 358.816,219.375C359.387,219.973 359.93,220.715 360.434,221.598L351.832,224.027L348.379,225.004L347.668,225.207L345.887,225.711L345.25,225.891C345.234,225.895 345.227,225.902 345.211,225.91C345.086,225.969 345.016,226.105 345.055,226.242C345.09,226.367 345.203,226.449 345.328,226.449C345.355,226.449 345.379,226.445 345.406,226.438L345.449,226.426L346.09,226.242L346.91,226.012L348.672,225.516L351.918,224.598L360.66,222.125C360.676,222.121 360.691,222.109 360.707,222.102C362.273,225.363 361.031,230.57 356.93,233.348C356.461,233.664 355.953,233.945 355.41,234.195C355.156,234.297 354.133,234.691 352.816,234.969C352.617,235.012 352.41,235.051 352.195,235.09C351.898,235.137 351.594,235.176 351.281,235.207ZM300.625,360.965C301.094,360.977 301.563,361.004 302.027,361.039C302.023,361.078 302.027,361.113 302.039,361.152C302.043,361.16 302.355,362.133 301.941,362.813C301.727,363.16 301.348,363.383 300.809,363.469C299.199,363.734 297.508,363.41 296.789,362.703C296.473,362.391 296.352,362.027 296.418,361.594C296.426,361.543 296.414,361.496 296.398,361.453C297.57,361.059 299.031,360.926 300.625,360.965ZM284.531,377.5C282.957,377.5 281.039,376.539 281.039,375.418C281.039,374.293 282.957,373.332 284.531,373.332C285.938,373.332 286.742,374.094 286.742,375.418C286.742,376.742 285.938,377.5 284.531,377.5ZM281.852,397.324C281.699,397.426 281.523,397.5 281.324,397.555C281.109,397.617 280.871,397.652 280.605,397.652C279.191,397.652 277.469,396.793 277.469,395.793C277.469,394.844 279.012,394.023 280.375,393.938C280.453,393.934 280.531,393.93 280.605,393.93C280.734,393.93 280.852,393.941 280.969,393.957C281.996,394.078 282.582,394.73 282.582,395.793C282.582,396.492 282.324,397.012 281.852,397.324ZM284.219,406.355C284.09,406.379 283.953,406.398 283.801,406.398C283.746,406.398 283.691,406.391 283.637,406.387C282.523,406.324 281.402,405.648 281.402,405C281.402,404.488 282.098,403.957 282.941,403.723C283.125,403.676 283.313,403.645 283.504,403.625C283.602,403.617 283.703,403.602 283.801,403.602C284.746,403.602 285.289,404.113 285.289,405C285.289,405.746 284.902,406.219 284.219,406.355ZM268.563,383.73C267.125,386.68 274.277,389.586 279.688,391.309C279.906,391.379 280.121,391.449 280.332,391.512C281.469,391.867 282.496,392.16 283.324,392.387C283.691,392.484 284.016,392.57 284.293,392.645C284.324,392.523 284.426,392.434 284.555,392.43C294.016,392.105 303.629,393.832 303.727,393.852C303.879,393.879 303.984,394.027 303.953,394.184C303.93,394.32 303.809,394.418 303.676,394.418C303.656,394.418 303.641,394.414 303.625,394.41C303.527,394.395 293.973,392.68 284.57,393C284.457,393.008 284.359,392.941 284.313,392.848C284.059,392.836 283.766,392.832 283.441,392.832C282.652,392.832 281.691,392.875 280.723,393.012C280.535,393.035 280.344,393.066 280.156,393.102C277.98,393.496 275.918,394.426 275.813,396.531C275.699,398.801 278.887,399.934 282.094,400.496C282.301,400.535 282.508,400.566 282.711,400.598C283.715,400.754 284.699,400.859 285.563,400.926C286.387,400.992 287.098,401.023 287.617,401.043C287.652,400.961 287.723,400.895 287.82,400.879C294.203,399.719 299.922,401.344 299.98,401.363C300.129,401.406 300.219,401.563 300.172,401.715C300.137,401.84 300.023,401.922 299.898,401.922C299.875,401.922 299.848,401.918 299.82,401.91C299.766,401.895 294.176,400.305 287.922,401.438C287.777,401.465 287.617,401.363 287.59,401.207C287.105,401.293 286.457,401.422 285.738,401.598C284.934,401.789 284.039,402.043 283.172,402.363C282.992,402.43 282.813,402.496 282.637,402.57C280.816,403.316 279.266,404.371 279.246,405.816C279.227,407.063 281.328,408.191 284.055,409.129C284.246,409.191 284.434,409.258 284.629,409.32C285.512,409.605 286.445,409.871 287.387,410.117C291.734,411.254 296.199,411.934 296.199,411.934L303.422,414.031L326.602,420.758L332.379,379.676C332.23,379.656 332.121,379.523 332.133,379.375C332.145,379.219 332.273,379.098 332.441,379.113L332.605,379.125L325.418,376.898C324.754,375.965 323.996,375.121 323.172,374.363L321.27,371.848C317.473,366.82 312.098,363.199 306.094,361.711C304.953,361.43 303.793,361.223 302.617,361.102C302.703,361.43 302.883,362.355 302.43,363.105C302.129,363.605 301.613,363.918 300.898,364.031C300.523,364.094 300.113,364.129 299.691,364.129C298.453,364.129 297.129,363.84 296.387,363.109C295.984,362.711 295.809,362.215 295.848,361.672C295.672,361.75 295.508,361.836 295.352,361.93C291.707,364.117 298.223,368.039 302.234,370.098C294.488,370.363 286.32,371.168 282.156,373.199C274.879,376.75 282.898,379.742 286.715,380.871C294.758,380.625 302.844,381.836 305.047,382.199C305.414,382.258 305.621,382.297 305.637,382.301C305.789,382.328 305.895,382.477 305.867,382.629C305.84,382.77 305.719,382.863 305.586,382.863C305.566,382.863 305.551,382.863 305.535,382.859C305.52,382.859 305.34,382.824 305.02,382.773C302.91,382.426 294.641,381.172 286.484,381.449C286.344,381.461 286.195,381.328 286.188,381.172C286.188,381.152 286.195,381.133 286.199,381.113C284.676,380.98 282.551,380.832 280.293,380.805C279.383,380.793 278.453,380.805 277.535,380.84C277.34,380.848 277.145,380.855 276.953,380.867C273.082,381.07 269.504,381.809 268.563,383.73ZM287.313,375.418C287.313,377.055 286.246,378.07 284.531,378.07C282.652,378.07 280.469,376.91 280.469,375.418C280.469,373.922 282.652,372.762 284.531,372.762C286.246,372.762 287.313,373.781 287.313,375.418ZM305.027,370.023C305.246,370.051 305.453,370.086 305.664,370.117C310.352,370.844 312.762,372.395 312.883,372.473C313.012,372.559 313.051,372.734 312.961,372.867C312.906,372.949 312.816,372.996 312.723,372.996C312.672,372.996 312.617,372.98 312.566,372.949C312.539,372.93 310.172,371.414 305.633,370.691C304.766,370.555 303.824,370.445 302.797,370.383C302.734,370.379 302.676,370.371 302.613,370.367C302.484,370.363 302.387,370.273 302.355,370.16C302.352,370.137 302.348,370.117 302.348,370.094C302.348,370.086 302.344,370.078 302.344,370.066C302.352,369.91 302.496,369.789 302.645,369.801C303.492,369.848 304.285,369.926 305.027,370.023ZM285.859,405C285.859,406.027 285.289,406.719 284.352,406.91C284.176,406.945 283.996,406.969 283.801,406.969L283.777,406.969C282.41,406.957 280.832,406.102 280.832,405C280.832,404.16 281.754,403.461 282.797,403.176C282.98,403.125 283.168,403.086 283.355,403.063C283.504,403.043 283.652,403.031 283.801,403.031C285.07,403.031 285.859,403.785 285.859,405ZM283.152,395.793C283.152,396.77 282.73,397.5 282.004,397.895C281.84,397.984 281.66,398.051 281.469,398.102C281.203,398.176 280.922,398.223 280.605,398.223C278.891,398.223 276.898,397.16 276.898,395.793C276.898,394.52 278.613,393.516 280.23,393.379C280.355,393.367 280.48,393.359 280.605,393.359C280.68,393.359 280.746,393.371 280.82,393.375C282.262,393.461 283.152,394.363 283.152,395.793ZM270.605,384.184C270.605,382.824 272.582,381.77 274.285,381.77C275.848,381.77 276.816,382.695 276.816,384.184C276.816,385.672 275.848,386.598 274.285,386.598C272.582,386.598 270.605,385.543 270.605,384.184ZM274.285,382.34C275.531,382.34 276.246,383.012 276.246,384.184C276.246,385.355 275.531,386.027 274.285,386.027C272.887,386.027 271.176,385.176 271.176,384.184C271.176,383.191 272.887,382.34 274.285,382.34ZM178.477,397.191C179.246,401.484 187.266,401.492 194.563,400.332C195.379,400.203 196.184,400.063 196.969,399.91C196.262,399.953 195.57,399.977 194.906,399.977C194.754,399.977 194.613,399.969 194.465,399.969C186.988,399.863 182.422,397.137 182.367,397.102C182.23,397.02 182.191,396.844 182.273,396.711C182.355,396.578 182.527,396.535 182.664,396.617C182.719,396.648 187.094,399.266 194.316,399.402C195.906,399.43 197.625,399.344 199.473,399.078C199.617,399.059 199.754,399.152 199.785,399.293C202.164,398.723 204.172,398.098 205.398,397.582C210.574,395.402 210.789,391.695 210.789,391.695C210.926,391.695 211.066,391.695 211.207,391.691L210.633,391.691C208.031,391.691 200.215,391.625 192.094,390.914C188.973,390.641 185.809,390.27 182.875,389.773C182.723,389.746 182.617,389.602 182.645,389.445C182.672,389.289 182.82,389.188 182.973,389.211C185.824,389.695 188.898,390.055 191.941,390.328C200.105,391.055 208.016,391.121 210.629,391.121C211.219,391.121 211.512,391.121 211.531,391.117C211.688,391.117 211.816,391.242 211.816,391.398C211.816,391.527 211.73,391.633 211.613,391.672C215.773,391.418 221.258,389.32 220.941,386.301C220.668,383.695 218.145,382.371 217.18,381.953C217.176,381.969 217.18,381.984 217.18,382C217.148,382.137 217.031,382.227 216.898,382.227C216.879,382.227 216.859,382.227 216.84,382.223C216.75,382.203 207.449,380.316 198.23,379.68C194.617,379.434 191.496,379.293 189.031,379.219C185.207,379.102 182.965,379.137 182.93,379.137L182.926,379.137C182.77,379.137 182.641,379.012 182.641,378.855C182.637,378.699 182.762,378.566 182.922,378.566C182.957,378.566 185.145,378.531 188.879,378.645C191.375,378.719 194.566,378.855 198.27,379.113C207.027,379.715 215.852,381.441 216.855,381.645C220.992,369.719 198.984,367.891 192.262,367.609C192.254,367.766 192.133,367.883 191.977,367.883L191.973,367.883L186.023,367.75L182.781,367.676C182.625,367.672 182.5,367.539 182.504,367.383C182.508,367.227 182.633,367.105 182.793,367.105L185.875,367.176L190.543,367.281L193.59,362.711C190.309,362.121 188.457,360.578 188.379,360.512C188.258,360.41 188.246,360.23 188.348,360.109C188.449,359.992 188.629,359.977 188.75,360.078C188.766,360.094 190.691,361.695 194.02,362.207C194.172,362.23 194.273,362.371 194.258,362.52C197.301,362.848 213.27,364.328 214.652,359.719C216.18,354.625 193.816,349.574 187.469,352.586C186.238,353.168 185.02,354.305 183.867,355.773C183.984,355.863 184.012,356.031 183.926,356.156L183.656,356.555L183.25,357.152L180.668,360.953L180.387,361.363C180.332,361.445 180.242,361.488 180.152,361.488C180.094,361.488 180.039,361.473 179.992,361.441C179.859,361.352 179.828,361.176 179.914,361.043L183.055,356.422L183.438,355.863L180.91,347.855L180.875,348.09L177.266,370.313C177.105,371.047 176.992,371.734 176.934,372.344C176.398,377.93 177.281,390.516 178.477,397.191ZM202.25,358.145C202.352,356.758 203.137,355.359 204.672,355.359C205.832,355.363 210.258,356.984 210.516,358.625C210.629,359.359 210.023,359.945 208.711,360.371C207.59,360.734 206.125,360.898 204.918,360.898C204.422,360.898 203.969,360.871 203.598,360.816C202.598,360.676 202.164,359.363 202.25,358.145ZM205.883,375.84C206.031,374.367 207.117,372.863 208.902,372.852C208.914,372.852 208.926,372.848 208.938,372.848C211.277,372.848 214.039,374.793 214.234,376.586C214.301,377.211 214.098,378.328 211.973,378.773C211.449,378.883 210.664,378.938 209.879,378.938C209.098,378.938 208.316,378.883 207.809,378.773C206.484,378.484 205.727,377.336 205.883,375.84ZM207.547,385.191C207.789,384.074 208.516,383.383 209.535,383.289C210.852,383.172 216.484,384.172 217.32,386.145C217.512,386.59 217.543,387.285 216.629,388.07C215.766,388.816 213.996,389.105 212.297,389.105C210.691,389.105 209.148,388.848 208.48,388.469C207.703,388.023 207.266,386.496 207.547,385.191ZM198.383,394.996C198.445,393.91 198.91,392.578 200.023,392.41C200.949,392.27 204.375,393.059 204.914,394.504C205.094,394.98 205.043,395.711 203.789,396.508C202.758,397.16 201.359,397.355 200.352,397.355C199.859,397.355 199.457,397.309 199.238,397.25C198.566,397.066 198.324,395.988 198.383,394.996ZM208.906,373.418L208.941,373.418C211.16,373.418 213.516,375.258 213.668,376.645C213.77,377.605 212.738,378.031 211.855,378.215C210.887,378.418 208.867,378.418 207.93,378.215C206.688,377.945 206.355,376.801 206.449,375.898C206.574,374.676 207.457,373.434 208.906,373.418ZM204.672,355.93C205.762,355.934 209.766,357.516 209.953,358.715C210.035,359.23 209.227,359.605 208.535,359.828C207.035,360.313 204.891,360.426 203.68,360.254C203.121,360.172 202.742,359.266 202.82,358.188C202.895,357.145 203.422,355.93 204.672,355.93ZM200.109,392.977C200.168,392.965 200.234,392.961 200.316,392.961C201.359,392.961 204.016,393.723 204.383,394.703C204.531,395.105 204.23,395.551 203.484,396.027C202.184,396.852 200.023,396.871 199.387,396.699C199.141,396.629 198.898,395.93 198.953,395.031C199.008,394.086 199.383,393.086 200.109,392.977ZM209.586,383.855C209.656,383.852 209.734,383.848 209.824,383.848C211.441,383.848 216.164,384.875 216.797,386.367C216.859,386.512 217.047,386.961 216.258,387.641C214.793,388.898 209.973,388.656 208.762,387.973C208.266,387.688 207.859,386.441 208.105,385.313C208.238,384.699 208.602,383.945 209.586,383.855Z" style="fill:rgb(152,83,59);fill-rule:nonzero;"/>
        <g>
            <path d="M310.414,274.391L315.754,274.391C315.969,274.375 316.18,274.355 316.387,274.336C316.707,274.309 317.02,274.273 317.328,274.238C323.594,273.523 327.672,271.598 330.23,269.762C330.734,269.398 331.188,269.035 331.578,268.691C333.375,267.102 334.035,265.801 334.051,265.77C334.121,265.625 334.289,265.566 334.43,265.633C334.445,265.641 334.453,265.652 334.465,265.66L340.059,257.332L339.535,256.746L343.801,249.258L346.043,245.324L348.703,240.66L350.156,238.102L349.973,237.273L347.766,241.148L344.504,246.875L343.504,248.633L339.137,256.297L337.246,254.184L332.668,249.063L329.43,245.438L323.5,238.797L343.41,222.016L343.332,221.852C343.332,221.852 343.527,221.668 343.875,221.379C343.758,221.34 343.617,221.289 343.453,221.23L322.941,238.52L309.922,239.496L297.473,240.426L286,241.285L285.883,241.293L285.996,244.293L286.551,258.688C286.66,261.637 287.555,264.375 289.02,266.715C291.332,270.406 295.074,273.098 299.457,274.027L299.434,274.07C299.465,274.055 299.5,274.047 299.539,274.047C299.547,274.047 299.555,274.043 299.566,274.043L307.625,274.391L310.414,274.512L310.414,274.391ZM402.016,438.758L401.598,438.688L392.125,437.047L343.48,428.637L351.754,381.184L374.574,382.953L391.918,387.855C392.07,387.902 392.227,387.813 392.27,387.66C392.313,387.508 392.227,387.352 392.074,387.309L376.289,382.844L387.105,382.121C387.262,382.109 387.379,381.973 387.371,381.816C387.359,381.66 387.215,381.539 387.066,381.551L374.93,382.363L376.93,349.656C376.934,349.648 376.934,349.637 376.934,349.625L378.566,322.938C378.578,322.781 378.457,322.645 378.301,322.637C378.152,322.625 378.008,322.746 378,322.902L376.508,347.219L373.039,327.699C373.012,327.547 372.867,327.441 372.707,327.469C372.555,327.496 372.449,327.645 372.477,327.801L376.359,349.641L374.426,381.219L374.355,382.363L351.551,380.594L351.527,380.594L344.82,380.074L351.773,292.371L351.84,291.535L352.129,287.879L352.586,282.117L352.719,280.441L352.781,279.648L352.801,279.41L352.863,278.617L352.801,278.617L352.801,275.723L352.805,269.734L355.813,269.734C357.766,269.734 359.648,270.324 361.242,271.375C362.086,271.926 362.852,272.602 363.5,273.402L367.375,278.195C367.316,278.176 367.25,278.176 367.191,278.203C367.082,278.246 367.016,278.352 367.016,278.461C367.016,278.5 367.023,278.539 367.039,278.574L367.055,278.617L367.516,279.703L368.211,281.352L372.086,290.539L362.754,283.566L361.027,282.277L357.75,279.832L357.516,279.656L356.121,278.617L355.738,278.328L355.59,278.219C355.465,278.125 355.285,278.148 355.191,278.277C355.184,278.289 355.18,278.305 355.172,278.32C355.121,278.418 355.133,278.531 355.195,278.617C355.215,278.637 355.227,278.66 355.25,278.676L357.195,280.125L357.75,280.543L361.133,283.07L361.797,283.563L361.363,284.129L361.289,284.227L355.934,291.223C355.836,291.348 355.859,291.523 355.984,291.621C356.035,291.66 356.098,291.68 356.16,291.68C356.242,291.68 356.328,291.641 356.383,291.566L361.398,285.023L362.254,283.906L372.59,291.625C372.691,291.699 372.832,291.699 372.934,291.621C373.035,291.539 373.07,291.402 373.02,291.285L368.738,281.137L368.23,279.938L367.676,278.617L367.629,278.508L367.613,278.469L380.133,278.617L391.996,278.617C408.121,278.617 421.395,291.313 422.105,307.422L426.875,415.164C427.488,429.035 415.605,440.047 402.016,438.652L402.016,438.758ZM343.094,429.148C343.102,429.152 343.105,429.152 343.113,429.152L401.672,439.277L402.016,439.336L402.016,440.145L340.059,440.145L340.961,428.781L343.094,429.148ZM242.141,421.098L272.402,421.098C272.402,421.258 272.531,421.383 272.688,421.383C273.574,421.383 274.445,421.285 275.293,421.098L275.75,421.098C282.121,421.098 287.051,416.074 287.387,410.117C291.734,411.254 296.199,411.934 296.199,411.934L303.422,414.031L302.09,440.145L240.133,440.145L242.141,421.098ZM283.441,392.832L283.324,392.387C283.691,392.484 284.016,392.57 284.293,392.645C284.285,392.668 284.277,392.695 284.277,392.723C284.277,392.77 284.293,392.809 284.313,392.848C284.059,392.836 283.766,392.832 283.441,392.832ZM287.59,401.207C287.105,401.293 286.457,401.422 285.738,401.598L285.563,400.926C286.387,400.992 287.098,401.023 287.617,401.043C287.594,401.094 287.578,401.148 287.59,401.207ZM302.582,360.973C302.531,360.82 302.367,360.742 302.223,360.789C302.109,360.828 302.035,360.93 302.027,361.039C301.563,361.004 301.094,360.977 300.625,360.965C299.031,360.926 297.57,361.059 296.398,361.453C296.363,361.359 296.285,361.285 296.176,361.27C296.023,361.25 295.875,361.352 295.852,361.508C295.844,361.563 295.852,361.617 295.848,361.672C295.672,361.75 295.508,361.836 295.352,361.93C291.707,364.117 298.223,368.039 302.234,370.098C294.488,370.363 286.32,371.168 282.156,373.199C274.879,376.75 282.898,379.742 286.715,380.871C286.629,380.875 286.547,380.875 286.465,380.879C286.328,380.883 286.223,380.984 286.199,381.113C284.676,380.98 282.551,380.832 280.293,380.805L270.746,344.371L268.242,334.813L272.211,306.305C272.234,306.148 272.125,306.004 271.969,305.984C271.816,305.961 271.668,306.07 271.648,306.227L267.867,333.379L263.715,317.543C262.504,312.914 258.605,309.563 253.961,308.953L254.852,300.496C256.125,288.414 266.957,278.617 279.043,278.617L297.051,278.039C297.004,278.063 296.961,278.09 296.934,278.137L296.43,278.902L290.922,287.297C290.852,287.406 290.863,287.547 290.953,287.645C291.039,287.742 291.184,287.766 291.297,287.703L300.301,282.875L304.828,291.934C304.879,292.031 304.98,292.09 305.086,292.09C305.129,292.09 305.172,292.078 305.211,292.059C305.352,291.988 305.41,291.816 305.34,291.676L301.031,283.066L300.801,282.605L308.082,278.699C308.121,278.676 308.148,278.648 308.172,278.617C308.238,278.531 308.25,278.414 308.199,278.313C308.121,278.172 307.949,278.121 307.813,278.195L307.027,278.617L299.723,282.535L292.016,286.672L295.777,280.934L297.18,278.801L297.41,278.449C297.496,278.32 297.457,278.141 297.328,278.055C297.309,278.043 297.289,278.039 297.273,278.035C297.23,278.016 297.188,278.012 297.145,278.016L299.273,274.344C299.281,274.488 299.395,274.609 299.543,274.613L310.395,275.078C310.402,275.082 310.406,275.082 310.414,275.082L310.414,278.617L310.332,278.617L309.922,286.676L309.824,288.594L309.777,289.492L306.094,361.711C304.953,361.43 303.793,361.223 302.617,361.102C302.598,361.031 302.586,360.98 302.582,360.973ZM336.027,414.246C337.977,414.246 339.563,415.832 339.563,417.781C339.563,419.73 337.977,421.316 336.027,421.316C334.078,421.316 332.492,419.73 332.492,417.781C332.492,415.832 334.078,414.246 336.027,414.246ZM326.602,420.758L325.867,425.965L340.469,428.41L340.469,428.406C340.496,428.25 340.648,428.148 340.801,428.176L341.004,428.211L342.922,428.543L351.184,381.137L344.777,380.641L333.809,379.789L332.395,379.68C332.391,379.68 332.383,379.676 332.379,379.676L326.602,420.758ZM331.922,417.781C331.922,415.516 333.766,413.676 336.027,413.676C338.293,413.676 340.133,415.516 340.133,417.781C340.133,420.043 338.293,421.887 336.027,421.887C333.766,421.887 331.922,420.043 331.922,417.781Z" style="fill:rgb(254,254,254);fill-rule:nonzero;"/>
        </g>
        <path d="M185.691,308.844L249.098,308.844C249.098,309 249.223,309.129 249.383,309.129C250.953,309.129 252.465,309.457 253.848,310.047C257,311.395 259.469,314.141 260.379,317.613L266.699,341.742L267.078,343.176L269.656,353.031L276.953,380.867C273.082,381.07 269.504,381.809 268.563,383.73C267.125,386.68 274.277,389.586 279.688,391.309L280.156,393.102C277.98,393.496 275.918,394.426 275.813,396.531C275.699,398.801 278.887,399.934 282.094,400.496L282.637,402.57C280.816,403.316 279.266,404.371 279.246,405.816C279.227,407.063 281.328,408.191 284.055,409.129C284.137,411.723 283.32,414.277 281.688,416.391C279.52,419.203 276.238,420.813 272.688,420.813C272.531,420.813 272.402,420.941 272.402,421.098L208.996,421.098C203.699,421.098 199.066,417.523 197.723,412.398L194.563,400.332C195.379,400.203 196.184,400.063 196.969,399.91C197.805,399.855 198.664,399.77 199.555,399.641C199.711,399.621 199.82,399.477 199.797,399.32C199.793,399.309 199.789,399.301 199.785,399.293C202.164,398.723 204.172,398.098 205.398,397.582C210.574,395.402 210.789,391.695 210.789,391.695C210.926,391.695 211.066,391.695 211.207,391.691C211.402,391.688 211.523,391.688 211.535,391.688C211.563,391.688 211.59,391.68 211.613,391.672C215.773,391.418 221.258,389.32 220.941,386.301C220.668,383.695 218.145,382.371 217.18,381.953C217.184,381.816 217.094,381.691 216.957,381.664C216.949,381.664 216.914,381.656 216.855,381.645C220.992,369.719 198.984,367.891 192.262,367.609L192.262,367.605C192.266,367.449 192.141,367.316 191.984,367.316L190.543,367.281L193.59,362.711C193.703,362.73 193.816,362.754 193.934,362.773L193.977,362.773C194.113,362.773 194.234,362.676 194.258,362.535L194.258,362.52C197.301,362.848 213.27,364.328 214.652,359.719C216.18,354.625 193.816,349.574 187.469,352.586C186.238,353.168 185.02,354.305 183.867,355.773C183.859,355.77 183.859,355.762 183.852,355.758C183.723,355.672 183.547,355.703 183.457,355.832L183.438,355.863L180.91,347.855L180.875,348.09L174.418,323.449C172.48,316.063 178.055,308.844 185.691,308.844ZM280.332,391.512C281.469,391.867 282.496,392.16 283.324,392.387L283.441,392.832C282.652,392.832 281.691,392.875 280.723,393.012L280.332,391.512ZM277.535,380.84L269.848,351.512L267.281,341.711L266.906,340.273L260.93,317.469C259.957,313.762 257.297,310.852 253.91,309.457C253.273,309.199 252.613,308.992 251.93,308.844L252.441,308.844C252.957,308.844 253.461,308.887 253.961,308.953C258.605,309.563 262.504,312.914 263.715,317.543L267.867,333.379L268.242,334.813L270.746,344.371L280.293,380.805C279.383,380.793 278.453,380.805 277.535,380.84ZM282.141,416.738C283.809,414.574 284.664,411.977 284.629,409.32C285.512,409.605 286.445,409.871 287.387,410.117C287.051,416.074 282.121,421.098 275.75,421.098L275.293,421.098C277.992,420.504 280.402,418.988 282.141,416.738ZM282.711,400.598C283.715,400.754 284.699,400.859 285.563,400.926L285.738,401.598C284.934,401.789 284.039,402.043 283.172,402.363L282.711,400.598Z" style="fill:rgb(0,241,133);fill-rule:nonzero;"/>
        <g>
            <path d="M216.855,381.645C215.852,381.441 207.027,379.715 198.27,379.113C194.566,378.855 191.375,378.719 188.879,378.645C185.145,378.531 182.957,378.566 182.922,378.566C182.762,378.566 182.637,378.699 182.641,378.855C182.641,379.012 182.77,379.137 182.926,379.137L182.93,379.137C182.965,379.137 185.207,379.102 189.031,379.219C191.496,379.293 194.617,379.434 198.23,379.68C207.449,380.316 216.75,382.203 216.84,382.223C216.859,382.227 216.879,382.227 216.898,382.227C217.031,382.227 217.148,382.137 217.18,382C217.18,381.984 217.176,381.969 217.18,381.953C217.184,381.816 217.094,381.691 216.957,381.664C216.949,381.664 216.914,381.656 216.855,381.645ZM283.172,402.363C282.992,402.43 282.813,402.496 282.637,402.57L282.094,400.496C282.301,400.535 282.508,400.566 282.711,400.598L283.172,402.363ZM332.098,298.75C340.105,298.75 347.238,295.922 351.84,291.535L351.773,292.371C347.059,296.613 339.992,299.32 332.098,299.32C322.543,299.32 314.199,295.355 309.777,289.492L309.824,288.594C314.012,294.621 322.422,298.75 332.098,298.75ZM299.273,274.344C299.273,274.332 299.27,274.324 299.27,274.316C299.273,274.207 299.336,274.113 299.43,274.07C299.465,274.055 299.5,274.047 299.539,274.047C299.547,274.047 299.555,274.043 299.566,274.043L307.625,274.391L310.414,274.512C311.266,274.535 312.078,274.535 312.875,274.52C313.246,274.516 313.621,274.508 313.984,274.492C314.59,274.469 315.18,274.434 315.754,274.391C315.969,274.375 316.18,274.355 316.387,274.336C316.707,274.309 317.02,274.273 317.328,274.238C323.594,273.523 327.672,271.598 330.23,269.762C330.734,269.398 331.188,269.035 331.578,268.691C333.375,267.102 334.035,265.801 334.051,265.77C334.121,265.625 334.289,265.566 334.43,265.633C334.445,265.641 334.453,265.652 334.465,265.66C334.578,265.738 334.625,265.887 334.566,266.016C334.496,266.16 333.805,267.527 331.98,269.156C331.766,269.348 331.535,269.543 331.289,269.738C330.191,270.613 328.773,271.527 326.953,272.352C325.473,273.02 323.719,273.625 321.668,274.098C320.105,274.457 318.367,274.738 316.434,274.91C315.43,275 314.371,275.059 313.258,275.086C312.852,275.094 312.445,275.102 312.023,275.102C311.5,275.102 310.961,275.094 310.414,275.082C310.406,275.082 310.402,275.082 310.395,275.078L299.543,274.613C299.395,274.609 299.281,274.488 299.273,274.344ZM290.953,287.645C290.863,287.547 290.852,287.406 290.926,287.297L296.43,278.902L296.934,278.137C296.961,278.09 297.004,278.063 297.051,278.039C297.082,278.027 297.109,278.016 297.145,278.016C297.188,278.012 297.23,278.016 297.273,278.035C297.289,278.039 297.309,278.043 297.328,278.055C297.457,278.141 297.496,278.32 297.41,278.449L297.18,278.801L295.777,280.934L292.016,286.672L299.723,282.535L307.027,278.617L307.813,278.195C307.949,278.121 308.121,278.172 308.199,278.313C308.25,278.414 308.238,278.531 308.172,278.617C308.148,278.648 308.121,278.676 308.082,278.699L300.801,282.605L301.031,283.066L305.34,291.676C305.41,291.816 305.352,291.988 305.211,292.059C305.172,292.078 305.129,292.09 305.086,292.09C304.98,292.09 304.879,292.031 304.828,291.934L300.301,282.875L291.297,287.703C291.184,287.766 291.039,287.742 290.953,287.645ZM302.027,361.039C302.035,360.93 302.109,360.828 302.223,360.789C302.367,360.742 302.531,360.82 302.582,360.973C302.586,360.98 302.598,361.031 302.617,361.102C302.703,361.43 302.883,362.355 302.43,363.105C302.125,363.605 301.613,363.918 300.898,364.031C300.523,364.094 300.113,364.129 299.691,364.129C298.453,364.129 297.129,363.84 296.387,363.109C295.984,362.711 295.809,362.215 295.848,361.672C295.852,361.617 295.844,361.563 295.852,361.508C295.875,361.352 296.023,361.25 296.176,361.27C296.285,361.285 296.363,361.359 296.398,361.453C296.414,361.496 296.426,361.543 296.418,361.594C296.352,362.027 296.473,362.391 296.789,362.703C297.508,363.41 299.199,363.734 300.809,363.469C301.348,363.383 301.727,363.16 301.941,362.813C302.355,362.133 302.043,361.16 302.039,361.152C302.027,361.113 302.023,361.078 302.027,361.039ZM282.004,397.895C282.73,397.5 283.152,396.77 283.152,395.793C283.152,394.363 282.262,393.461 280.82,393.375C280.746,393.371 280.68,393.359 280.605,393.359C280.48,393.359 280.355,393.367 280.23,393.379C278.613,393.516 276.898,394.52 276.898,395.793C276.898,397.16 278.891,398.223 280.605,398.223C280.922,398.223 281.203,398.176 281.469,398.102C281.66,398.051 281.84,397.984 282.004,397.895ZM281.852,397.324C281.699,397.426 281.523,397.5 281.324,397.555C281.109,397.617 280.871,397.652 280.605,397.652C279.191,397.652 277.469,396.793 277.469,395.793C277.469,394.844 279.012,394.023 280.375,393.938C280.453,393.934 280.531,393.93 280.605,393.93C280.734,393.93 280.852,393.941 280.969,393.957C281.996,394.078 282.582,394.73 282.582,395.793C282.582,396.492 282.324,397.012 281.852,397.324ZM194.258,362.535C194.234,362.676 194.113,362.773 193.977,362.773L193.934,362.773C193.816,362.754 193.703,362.73 193.59,362.711C190.309,362.121 188.457,360.578 188.379,360.512C188.258,360.41 188.246,360.23 188.348,360.109C188.449,359.992 188.629,359.977 188.75,360.078C188.766,360.094 190.691,361.695 194.02,362.207C194.172,362.23 194.273,362.371 194.258,362.52L194.258,362.535ZM208.711,360.371C210.023,359.945 210.629,359.359 210.516,358.625C210.258,356.984 205.832,355.363 204.672,355.359C203.137,355.359 202.352,356.758 202.25,358.145C202.164,359.363 202.598,360.676 203.598,360.816C203.969,360.871 204.422,360.898 204.918,360.898C206.125,360.898 207.59,360.734 208.711,360.371ZM208.535,359.828C207.035,360.313 204.891,360.426 203.68,360.254C203.121,360.172 202.742,359.266 202.82,358.188C202.895,357.145 203.422,355.93 204.672,355.93C205.762,355.93 209.766,357.516 209.953,358.715C210.035,359.23 209.227,359.605 208.535,359.828ZM182.504,367.383C182.508,367.227 182.633,367.105 182.797,367.105L185.875,367.176L190.543,367.281L191.984,367.316C192.141,367.316 192.266,367.449 192.262,367.605L192.262,367.609C192.254,367.766 192.133,367.883 191.977,367.883L191.973,367.883L186.023,367.75L182.781,367.676C182.625,367.672 182.5,367.539 182.504,367.383ZM390.371,213.898C390.371,213.715 390.145,195.816 371.977,194.566C371.984,194.375 371.992,194.188 371.992,193.996C371.992,182.469 362.648,173.125 351.121,173.125C349.152,173.125 347.254,173.402 345.449,173.91C354.754,168.438 364.695,176.109 364.805,176.195C364.859,176.234 364.918,176.254 364.98,176.254C365.066,176.254 365.148,176.219 365.207,176.145C365.305,176.023 365.281,175.844 365.156,175.746C365.043,175.652 353.527,166.762 343.438,174.59C343.313,174.641 343.184,174.688 343.059,174.738C340.129,166.059 331.922,159.809 322.254,159.809C314.887,159.809 308.375,163.438 304.391,169C303.188,167.988 295.797,162.445 285.387,169.41C285.258,169.5 285.223,169.676 285.313,169.809C285.363,169.891 285.457,169.934 285.547,169.934C285.602,169.934 285.656,169.918 285.707,169.887C294.816,163.789 301.34,167.414 303.445,168.973C301.418,168.172 299.215,167.73 296.906,167.73C287.039,167.73 279.043,175.727 279.043,185.594C279.043,185.84 279.051,186.086 279.063,186.328C271.668,188.516 266.273,195.355 266.273,203.453C266.273,208.48 268.352,213.02 271.691,216.262C271.625,216.359 271.559,216.453 271.496,216.551C269.992,217.238 267.219,219.207 267.051,224.395C267.047,224.555 267.168,224.684 267.328,224.691L267.336,224.691C267.488,224.691 267.617,224.566 267.621,224.414C267.754,220.324 269.527,218.391 270.91,217.496C269.387,220.125 268.508,223.18 268.508,226.438C268.508,233.762 272.918,240.055 279.227,242.813C278.234,245.035 277.676,247.496 277.676,250.086C277.676,257.652 282.379,264.113 289.02,266.715C287.555,264.375 286.66,261.637 286.551,258.688L285.996,244.293L285.883,241.293L286,241.285C285.938,239.273 285.883,237.176 285.836,235.094C285.719,229.895 285.645,224.777 285.566,221.254C285.563,221.195 285.563,221.133 285.563,221.078C285.457,216.438 285.93,212.289 286.848,208.59C286.855,208.566 286.859,208.539 286.867,208.516C286.863,208.543 286.863,208.563 286.859,208.59C286.668,210.805 286.559,214.602 287.34,219.098C287.363,219.238 287.484,219.336 287.621,219.336C287.637,219.336 287.652,219.336 287.668,219.332C287.824,219.305 287.93,219.156 287.902,219C287.125,214.535 287.238,210.781 287.43,208.609C287.465,208.219 287.5,207.871 287.535,207.586C289.141,208.195 292.043,208.43 296.387,205.637C297.383,204.996 298.352,204.195 299.277,203.293C300.148,202.449 300.98,201.516 301.762,200.559C303.094,198.922 304.277,197.203 305.246,195.672C306.586,193.559 307.516,191.805 307.855,191.145C307.848,191.184 307.844,191.227 307.855,191.27C307.871,191.34 307.969,191.734 308.16,192.332C308.375,193.508 308.898,195.211 310.145,196.777C310.238,196.934 310.336,197.094 310.434,197.25C311.617,199.098 313.262,200.891 315.484,201.82C316.516,202.254 317.605,202.473 318.746,202.473C320.852,202.473 323.129,201.738 325.563,200.273C325.695,200.191 325.738,200.016 325.66,199.879C325.578,199.746 325.402,199.703 325.266,199.785C321.68,201.945 318.461,202.453 315.703,201.297C314.34,200.723 313.195,199.785 312.254,198.711C312.914,199.152 313.68,199.543 314.566,199.863C322.926,202.852 327.816,195.613 327.816,195.613C327.816,195.613 327.43,198.754 328.035,202.961C328.434,205.727 329.258,208.953 330.906,212.055C333.738,217.383 341,220.355 343.453,221.23C343.617,221.289 343.758,221.34 343.875,221.379C344.273,221.047 344.867,220.578 345.609,220.066C345.824,219.918 346.055,219.762 346.297,219.609C347.504,218.84 348.988,218.051 350.582,217.566C353.305,216.734 356.336,216.797 358.816,219.375C359.387,219.973 359.93,220.715 360.434,221.598L351.832,224.027L348.379,225.004L347.668,225.207L345.887,225.711L345.25,225.891C345.234,225.895 345.227,225.902 345.211,225.91C345.086,225.969 345.016,226.105 345.055,226.242C345.09,226.367 345.203,226.449 345.328,226.449C345.355,226.449 345.379,226.445 345.406,226.438L345.449,226.426L346.09,226.242L346.91,226.012L348.672,225.516L351.918,224.598L360.66,222.125C360.676,222.121 360.691,222.109 360.707,222.102C362.273,225.363 361.031,230.57 356.93,233.348C356.461,233.664 355.953,233.945 355.41,234.195C355.156,234.297 354.133,234.691 352.816,234.969C352.613,235.012 352.41,235.051 352.195,235.086C351.898,235.137 351.594,235.176 351.281,235.207C350.719,235.242 350.129,235.246 349.516,235.215L349.973,237.273L350.156,238.102L350.516,239.711L350.715,240.621L352.816,250.086L352.813,258.422L352.805,269.734L355.813,269.734C357.766,269.734 359.648,270.324 361.242,271.375C364.641,268.484 367.098,264.523 368.102,260.016C376.891,257.555 383.336,249.492 383.336,239.922C383.336,236.367 382.445,233.023 380.883,230.094C384.945,226.285 387.488,220.875 387.488,214.863C387.488,205.953 381.902,198.352 374.043,195.359C389.59,197.703 389.801,213.203 389.801,213.898C389.801,214.055 389.93,214.184 390.086,214.184C390.246,214.184 390.371,214.055 390.371,213.898ZM308.004,190.957C307.969,190.977 307.938,190.996 307.914,191.027C307.969,190.922 308,190.855 308,190.855C308,190.855 308,190.895 308.004,190.957ZM280.469,375.418C280.469,376.91 282.652,378.07 284.531,378.07C286.246,378.07 287.313,377.055 287.313,375.418C287.313,373.781 286.246,372.762 284.531,372.762C282.652,372.762 280.469,373.922 280.469,375.418ZM281.039,375.418C281.039,374.293 282.957,373.332 284.531,373.332C285.938,373.332 286.742,374.094 286.742,375.418C286.742,376.742 285.938,377.5 284.531,377.5C282.957,377.5 281.039,376.539 281.039,375.418ZM279.688,391.309C279.906,391.379 280.121,391.449 280.332,391.512L280.723,393.012C280.535,393.035 280.344,393.066 280.156,393.102L279.688,391.309ZM208.938,372.848C208.926,372.848 208.914,372.852 208.902,372.852C207.117,372.863 206.031,374.367 205.883,375.84C205.727,377.336 206.484,378.484 207.809,378.773C208.316,378.883 209.098,378.938 209.879,378.938C210.664,378.938 211.449,378.883 211.973,378.773C214.098,378.328 214.301,377.211 214.234,376.586C214.039,374.793 211.277,372.848 208.938,372.848ZM213.668,376.645C213.77,377.605 212.738,378.031 211.855,378.215C210.887,378.418 208.867,378.418 207.93,378.215C206.688,377.945 206.355,376.801 206.449,375.898C206.574,374.676 207.457,373.434 208.906,373.422C208.918,373.422 208.93,373.418 208.941,373.418C211.16,373.418 213.516,375.258 213.668,376.645ZM271.969,305.984C272.125,306.004 272.234,306.148 272.211,306.305L268.242,334.813L267.867,333.379L271.648,306.227C271.668,306.07 271.816,305.961 271.969,305.984ZM313.75,227.082C313.809,228.434 313.109,229.566 312.188,229.605C311.266,229.648 310.469,228.582 310.41,227.227C310.352,225.875 311.051,224.742 311.973,224.703C312.895,224.66 313.691,225.727 313.75,227.082ZM284.352,406.91C285.289,406.719 285.859,406.027 285.859,405C285.859,403.785 285.07,403.031 283.801,403.031C283.652,403.031 283.504,403.043 283.355,403.063C283.168,403.086 282.98,403.125 282.797,403.176C281.754,403.461 280.832,404.16 280.832,405C280.832,406.102 282.41,406.957 283.777,406.969L283.801,406.969C283.996,406.969 284.176,406.945 284.352,406.91ZM284.219,406.355C284.09,406.379 283.953,406.398 283.801,406.398C283.746,406.398 283.691,406.391 283.637,406.387C282.523,406.324 281.402,405.648 281.402,405C281.402,404.488 282.098,403.957 282.941,403.723C283.125,403.676 283.313,403.645 283.504,403.625C283.602,403.613 283.703,403.602 283.801,403.602C284.746,403.602 285.289,404.113 285.289,405C285.289,405.746 284.902,406.219 284.219,406.355ZM195.469,308.844L194.387,306.422C193.91,305.352 194.691,304.145 195.867,304.145L203.77,304.145C202.5,299.883 204.93,296.426 209.191,296.426C213.453,296.426 217.938,299.883 219.203,304.145L230.16,304.145C230.801,304.145 231.379,304.52 231.637,305.102L233.309,308.844L195.469,308.844ZM270.605,384.184C270.605,385.543 272.582,386.598 274.285,386.598C275.848,386.598 276.816,385.672 276.816,384.184C276.816,382.695 275.848,381.77 274.285,381.77C272.582,381.77 270.605,382.824 270.605,384.184ZM271.176,384.184C271.176,383.191 272.887,382.34 274.285,382.34C275.531,382.34 276.246,383.012 276.246,384.184C276.246,385.355 275.531,386.027 274.285,386.027C272.887,386.027 271.176,385.176 271.176,384.184ZM272.688,420.813C276.238,420.813 279.52,419.203 281.688,416.391C283.32,414.277 284.137,411.723 284.055,409.129C284.246,409.191 284.434,409.258 284.629,409.32C284.664,411.977 283.809,414.574 282.141,416.738C280.402,418.988 277.992,420.504 275.293,421.098C274.445,421.285 273.574,421.383 272.688,421.383C272.531,421.383 272.402,421.258 272.402,421.098C272.402,420.941 272.531,420.813 272.688,420.813ZM208.48,388.469C209.148,388.848 210.691,389.105 212.297,389.105C213.996,389.105 215.766,388.816 216.629,388.07C217.543,387.285 217.512,386.59 217.32,386.145C216.484,384.172 210.852,383.172 209.535,383.289C208.516,383.383 207.789,384.074 207.547,385.191C207.266,386.496 207.703,388.023 208.48,388.469ZM208.105,385.313C208.238,384.699 208.602,383.945 209.586,383.855C209.656,383.852 209.734,383.848 209.824,383.848C211.441,383.848 216.164,384.875 216.797,386.367C216.859,386.512 217.047,386.961 216.258,387.641C214.793,388.898 209.973,388.66 208.762,387.973C208.266,387.688 207.859,386.441 208.105,385.313ZM249.383,308.559C250.254,308.559 251.105,308.664 251.93,308.844C252.613,308.992 253.273,309.199 253.91,309.457C257.297,310.852 259.957,313.762 260.93,317.469L266.906,340.273L267.281,341.711L269.848,351.512L277.535,380.84C277.34,380.848 277.145,380.855 276.953,380.867L269.656,353.031L267.078,343.176L266.699,341.742L260.379,317.613C259.469,314.141 257,311.395 253.848,310.047C252.465,309.457 250.953,309.129 249.383,309.129C249.223,309.129 249.098,309 249.098,308.844C249.098,308.684 249.223,308.559 249.383,308.559ZM179.914,361.043L183.055,356.422L183.438,355.863L183.457,355.832C183.547,355.703 183.723,355.672 183.852,355.758C183.859,355.762 183.859,355.77 183.867,355.773C183.984,355.863 184.012,356.031 183.926,356.156L183.656,356.555L183.25,357.152L180.668,360.953L180.387,361.363C180.332,361.445 180.242,361.488 180.152,361.488C180.094,361.488 180.039,361.473 179.988,361.441C179.859,361.352 179.828,361.176 179.914,361.043ZM182.664,396.617C182.719,396.648 187.094,399.266 194.316,399.402C195.906,399.43 197.625,399.344 199.473,399.078C199.617,399.059 199.75,399.152 199.785,399.293C199.789,399.301 199.793,399.309 199.797,399.32C199.82,399.477 199.711,399.621 199.555,399.641C198.664,399.77 197.805,399.855 196.969,399.906C196.262,399.953 195.57,399.977 194.906,399.977C194.754,399.977 194.613,399.969 194.465,399.969C186.988,399.863 182.422,397.137 182.367,397.102C182.23,397.02 182.191,396.844 182.273,396.711C182.355,396.578 182.527,396.535 182.664,396.617ZM199.238,397.25C199.457,397.309 199.859,397.355 200.352,397.355C201.359,397.355 202.758,397.16 203.789,396.508C205.043,395.711 205.094,394.98 204.914,394.504C204.375,393.059 200.949,392.27 200.023,392.41C198.91,392.578 198.445,393.91 198.383,394.996C198.324,395.988 198.566,397.066 199.238,397.25ZM198.953,395.031C199.008,394.086 199.383,393.086 200.109,392.977C200.168,392.965 200.234,392.961 200.316,392.961C201.359,392.961 204.016,393.723 204.383,394.703C204.531,395.105 204.23,395.551 203.484,396.027C202.184,396.852 200.023,396.871 199.387,396.699C199.141,396.629 198.898,395.93 198.953,395.031ZM182.875,389.773C182.723,389.746 182.617,389.602 182.645,389.445C182.672,389.289 182.82,389.188 182.973,389.211C185.824,389.695 188.898,390.055 191.941,390.328C200.105,391.055 208.016,391.121 210.629,391.121C211.219,391.121 211.512,391.121 211.531,391.117C211.688,391.117 211.816,391.242 211.816,391.398C211.816,391.527 211.73,391.633 211.613,391.672C211.59,391.68 211.563,391.688 211.535,391.688C211.523,391.688 211.402,391.688 211.207,391.691L210.633,391.691C208.031,391.691 200.215,391.625 192.094,390.914C188.973,390.641 185.809,390.27 182.875,389.773ZM296.203,227.082C296.262,228.434 295.563,229.566 294.641,229.605C293.719,229.648 292.922,228.582 292.863,227.227C292.805,225.875 293.504,224.742 294.426,224.703C295.348,224.66 296.145,225.727 296.203,227.082ZM357.75,280.543L357.195,280.125L355.25,278.676C355.227,278.66 355.215,278.637 355.195,278.617C355.133,278.531 355.121,278.418 355.172,278.32C355.18,278.305 355.184,278.289 355.191,278.277C355.285,278.148 355.465,278.125 355.59,278.219L355.738,278.328L356.121,278.617L357.516,279.656L357.75,279.832L361.027,282.277L362.754,283.566L372.086,290.539L368.211,281.352L367.516,279.703L367.055,278.617L367.039,278.574C367.023,278.539 367.016,278.5 367.016,278.461C367.016,278.352 367.082,278.246 367.191,278.203C367.25,278.176 367.316,278.176 367.375,278.195C367.457,278.215 367.527,278.27 367.563,278.352L367.613,278.469L367.629,278.508L367.676,278.617L368.23,279.938L368.738,281.137L373.023,291.285C373.07,291.402 373.035,291.539 372.934,291.621C372.832,291.699 372.691,291.699 372.59,291.625L362.254,283.906L361.398,285.023L356.383,291.566C356.328,291.641 356.242,291.68 356.16,291.68C356.098,291.68 356.035,291.66 355.984,291.621C355.859,291.523 355.836,291.348 355.934,291.223L361.289,284.227L361.363,284.129L361.797,283.563L361.133,283.07L357.75,280.543ZM340.801,428.176L341.004,428.211L342.922,428.543L351.184,381.137L344.777,380.641L333.809,379.789L332.395,379.68C332.391,379.68 332.383,379.676 332.379,379.676C332.23,379.656 332.121,379.523 332.133,379.375C332.145,379.219 332.273,379.098 332.441,379.113L332.605,379.125L344.82,380.074L351.527,380.594L351.551,380.594L374.355,382.363L374.426,381.219L376.359,349.641L372.477,327.801C372.449,327.645 372.555,327.496 372.707,327.469C372.867,327.441 373.012,327.547 373.039,327.699L376.508,347.219L378,322.902C378.008,322.746 378.152,322.625 378.301,322.637C378.457,322.645 378.578,322.781 378.566,322.938L376.934,349.625C376.934,349.637 376.934,349.648 376.93,349.656L374.93,382.363L387.066,381.551C387.215,381.539 387.359,381.66 387.371,381.816C387.379,381.973 387.262,382.109 387.105,382.121L376.289,382.844L392.074,387.309C392.227,387.352 392.313,387.508 392.27,387.66C392.227,387.813 392.07,387.902 391.918,387.855L374.574,382.953L351.754,381.184L343.48,428.637L392.125,437.047L401.598,438.688L402.016,438.758L402.688,438.875C402.844,438.902 402.945,439.047 402.918,439.203C402.895,439.344 402.777,439.441 402.641,439.441C402.625,439.441 402.605,439.438 402.59,439.438L402.016,439.336L401.672,439.277L343.113,429.152C343.105,429.152 343.102,429.152 343.094,429.148L340.961,428.781L340.703,428.738C340.547,428.711 340.445,428.563 340.469,428.41L340.469,428.406C340.496,428.25 340.648,428.148 340.801,428.176ZM301.18,224.629C301.219,224.477 301.371,224.387 301.527,224.426C301.68,224.465 301.77,224.621 301.73,224.773L299.656,232.707L297.758,239.992C297.723,240.121 297.605,240.207 297.48,240.207C297.457,240.207 297.434,240.203 297.41,240.195C297.258,240.156 297.164,240 297.203,239.848L299.102,232.582L301.18,224.629ZM284.313,392.848C284.293,392.809 284.277,392.77 284.277,392.723C284.277,392.695 284.285,392.668 284.293,392.645C284.324,392.523 284.426,392.434 284.555,392.43C294.016,392.105 303.629,393.832 303.727,393.852C303.879,393.879 303.984,394.027 303.953,394.184C303.93,394.32 303.809,394.418 303.676,394.418C303.656,394.418 303.641,394.414 303.625,394.41C303.527,394.395 293.973,392.68 284.57,393C284.457,393.008 284.359,392.941 284.313,392.848ZM331.922,417.781C331.922,420.043 333.766,421.887 336.027,421.887C338.293,421.887 340.133,420.043 340.133,417.781C340.133,415.516 338.293,413.676 336.027,413.676C333.766,413.676 331.922,415.516 331.922,417.781ZM332.492,417.781C332.492,415.832 334.078,414.246 336.027,414.246C337.977,414.246 339.563,415.832 339.563,417.781C339.563,419.73 337.977,421.316 336.027,421.316C334.078,421.316 332.492,419.73 332.492,417.781ZM287.82,400.879C294.203,399.719 299.922,401.344 299.98,401.363C300.129,401.406 300.219,401.563 300.172,401.715C300.137,401.84 300.023,401.922 299.898,401.922C299.875,401.922 299.848,401.918 299.82,401.91C299.766,401.895 294.176,400.305 287.922,401.438C287.777,401.465 287.617,401.363 287.59,401.207C287.578,401.148 287.594,401.094 287.617,401.043C287.652,400.961 287.723,400.895 287.82,400.879ZM286.484,381.449C286.344,381.461 286.195,381.328 286.188,381.172C286.188,381.152 286.195,381.133 286.199,381.113C286.223,380.984 286.328,380.883 286.465,380.879C286.547,380.875 286.629,380.875 286.715,380.871C294.758,380.625 302.844,381.836 305.047,382.199C305.414,382.258 305.621,382.297 305.637,382.301C305.789,382.328 305.895,382.477 305.867,382.629C305.84,382.77 305.719,382.863 305.586,382.863C305.566,382.863 305.551,382.863 305.535,382.859C305.52,382.859 305.34,382.824 305.02,382.773C302.91,382.426 294.641,381.172 286.484,381.449ZM302.797,370.383C302.734,370.379 302.676,370.371 302.613,370.367C302.484,370.363 302.387,370.273 302.355,370.16C302.352,370.137 302.348,370.117 302.348,370.094C302.348,370.086 302.344,370.078 302.344,370.066C302.352,369.91 302.496,369.789 302.645,369.801C303.492,369.848 304.285,369.926 305.027,370.023C305.246,370.051 305.453,370.086 305.664,370.117C310.352,370.844 312.762,372.395 312.883,372.473C313.012,372.559 313.051,372.734 312.961,372.867C312.906,372.949 312.816,372.996 312.723,372.996C312.672,372.996 312.617,372.98 312.566,372.949C312.539,372.93 310.172,371.414 305.633,370.691C304.766,370.555 303.824,370.445 302.797,370.383ZM291.168,214.758C291.027,214.758 290.906,214.648 290.891,214.504C290.875,214.352 290.988,214.215 291.145,214.199L298.422,213.496C298.574,213.48 298.711,213.594 298.727,213.75C298.742,213.902 298.629,214.039 298.477,214.055L291.195,214.758L291.168,214.758ZM310.129,213.734C310.152,213.578 310.293,213.48 310.449,213.496L318.52,214.711C318.672,214.734 318.777,214.879 318.754,215.031C318.734,215.168 318.613,215.27 318.477,215.27C318.465,215.27 318.449,215.27 318.438,215.266L310.363,214.051C310.211,214.027 310.105,213.887 310.129,213.734Z" style="fill:rgb(35,31,31);fill-rule:nonzero;"/>
        </g>
    </g>
</svg>
