<?xml version="1.0" encoding="UTF-8"?>
<svg xmlns="http://www.w3.org/2000/svg" xmlns:xlink="http://www.w3.org/1999/xlink" width="600pt" height="599.999999pt" viewBox="0 0 600 599.999999" version="1.2">
<defs>
<clipPath id="clip1">
  <path d="M 302 278 L 353 278 L 353 440.226562 L 302 440.226562 Z M 302 278 "/>
</clipPath>
<clipPath id="clip2">
  <path d="M 240 221 L 427 221 L 427 440.226562 L 240 440.226562 Z M 240 221 "/>
</clipPath>
<clipPath id="clip3">
  <path d="M 179 159.726562 L 403 159.726562 L 403 440 L 179 440 Z M 179 159.726562 "/>
</clipPath>
</defs>
<g id="surface1">
<rect x="0" y="0" width="600" height="599.999999" style="fill:rgb(100%,100%,100%);fill-opacity:1;stroke:none;"/>
<rect x="0" y="0" width="600" height="599.999999" style="fill:rgb(100%,100%,100%);fill-opacity:1;stroke:none;"/>
<rect x="0" y="0" width="600" height="599.999999" style="fill:rgb(100%,100%,100%);fill-opacity:1;stroke:none;"/>
<path style=" stroke:none;fill-rule:nonzero;fill:rgb(21.569824%,49.01886%,100%);fill-opacity:1;" d="M 471.984375 465.65625 L 127.226562 465.65625 C 115.425781 465.65625 105.8125 456.003906 105.8125 444.152344 L 105.8125 156.503906 C 105.8125 144.65625 115.425781 135 127.226562 135 L 471.984375 135 C 483.785156 135 493.402344 144.65625 493.402344 156.503906 L 493.402344 444.152344 C 493.402344 456.003906 483.785156 465.65625 471.984375 465.65625 Z M 471.984375 465.65625 "/>
<path style=" stroke:none;fill-rule:nonzero;fill:rgb(59.999084%,32.939148%,23.529053%);fill-opacity:1;" d="M 401.730469 439.859375 L 401.730469 438.335938 L 402.046875 438.367188 C 402.808594 438.445312 403.578125 438.484375 404.339844 438.484375 C 410.367188 438.484375 416.230469 435.96875 420.433594 431.574219 C 424.675781 427.144531 426.859375 421.316406 426.589844 415.175781 L 421.820312 307.4375 C 421.113281 291.433594 408.011719 278.902344 391.996094 278.902344 L 380.132812 278.902344 L 367.421875 278.75 L 367.300781 278.464844 L 367.210938 278.441406 L 367.152344 278.375 L 363.277344 273.582031 C 362.667969 272.832031 361.933594 272.167969 361.085938 271.613281 L 360.769531 271.402344 L 361.058594 271.15625 C 364.457031 268.265625 366.859375 264.285156 367.820312 259.953125 L 367.859375 259.785156 L 368.023438 259.742188 C 376.871094 257.265625 383.050781 249.113281 383.050781 239.921875 C 383.050781 236.542969 382.214844 233.191406 380.628906 230.230469 L 380.527344 230.035156 L 380.6875 229.886719 C 384.890625 225.949219 387.203125 220.613281 387.203125 214.863281 C 387.203125 206.378906 381.875 198.644531 373.941406 195.625 L 374.082031 195.082031 C 373.40625 194.980469 372.695312 194.902344 371.957031 194.851562 L 371.6875 194.832031 L 371.699219 194.359375 C 371.703125 194.238281 371.707031 194.117188 371.707031 193.996094 C 371.707031 182.644531 362.472656 173.410156 351.121094 173.410156 C 349.234375 173.410156 347.351562 173.671875 345.523438 174.1875 L 345.304688 173.664062 C 344.726562 174.007812 344.160156 174.390625 343.609375 174.816406 L 343.578125 174.839844 C 343.578125 174.839844 343.246094 174.972656 343.171875 175.003906 L 342.886719 175.121094 L 342.789062 174.832031 C 339.8125 166.015625 331.558594 160.09375 322.253906 160.09375 C 315.28125 160.09375 308.691406 163.484375 304.621094 169.164062 L 304.441406 169.414062 L 304.203125 169.21875 C 304.066406 169.101562 303.867188 168.941406 303.609375 168.753906 L 303.339844 169.238281 C 301.285156 168.425781 299.117188 168.015625 296.90625 168.015625 C 287.214844 168.015625 279.328125 175.902344 279.328125 185.59375 C 279.328125 185.835938 279.335938 186.078125 279.347656 186.316406 L 279.355469 186.539062 L 279.140625 186.601562 C 271.734375 188.792969 266.558594 195.722656 266.558594 203.453125 C 266.558594 208.242188 268.453125 212.71875 271.890625 216.058594 L 272.066406 216.226562 L 271.6875 216.777344 L 271.613281 216.808594 C 271.359375 216.925781 271.074219 217.078125 270.773438 217.273438 L 271.15625 217.636719 C 269.609375 220.304688 268.792969 223.347656 268.792969 226.4375 C 268.792969 233.425781 272.933594 239.75 279.339844 242.550781 L 279.601562 242.664062 L 279.484375 242.925781 C 278.472656 245.191406 277.960938 247.601562 277.960938 250.085938 C 277.960938 257.367188 282.34375 263.789062 289.125 266.453125 L 289.210938 266.484375 L 289.261719 266.566406 C 291.558594 270.234375 295.296875 272.851562 299.515625 273.75 L 299.902344 273.832031 L 299.65625 274.253906 L 299.558594 274.324219 L 299.558594 274.417969 L 297.316406 278.285156 L 297.171875 278.296875 L 297.117188 278.324219 L 279.050781 278.902344 C 267.117188 278.902344 256.394531 288.601562 255.136719 300.527344 L 254.214844 309.273438 L 253.925781 309.234375 C 253.378906 309.164062 252.894531 309.128906 252.441406 309.128906 L 251.902344 309.128906 L 251.871094 309.121094 C 251.027344 308.9375 250.1875 308.84375 249.382812 308.84375 L 249.382812 309.128906 L 233.125 309.128906 L 231.378906 305.21875 C 231.164062 304.738281 230.6875 304.429688 230.160156 304.429688 L 218.992188 304.429688 L 218.929688 304.222656 C 217.699219 300.082031 213.328125 296.710938 209.191406 296.710938 C 207.28125 296.710938 205.695312 297.433594 204.71875 298.742188 C 203.675781 300.136719 203.4375 302.027344 204.042969 304.0625 L 204.152344 304.429688 L 195.867188 304.429688 C 195.410156 304.429688 194.992188 304.65625 194.746094 305.035156 C 194.5 305.417969 194.464844 305.890625 194.648438 306.304688 L 195.910156 309.128906 L 185.691406 309.128906 C 182.140625 309.128906 178.859375 310.738281 176.691406 313.550781 C 174.519531 316.363281 173.792969 319.941406 174.691406 323.375 L 181.164062 348.078125 L 177.546875 370.355469 C 177.382812 371.117188 177.273438 371.789062 177.21875 372.371094 C 176.675781 378.042969 177.613281 390.730469 178.757812 397.140625 C 179.285156 400.085938 183.617188 400.703125 187.15625 400.703125 C 189.320312 400.703125 191.792969 400.484375 194.519531 400.050781 L 194.773438 400.011719 L 198 412.328125 C 199.308594 417.324219 203.832031 420.8125 208.996094 420.8125 L 242.457031 420.8125 L 240.449219 439.859375 Z M 364.980469 175.96875 C 364.925781 175.925781 359.429688 171.65625 352.710938 171.65625 C 350.296875 171.65625 348.023438 172.214844 345.925781 173.320312 C 348.023438 172.214844 350.304688 171.65625 352.71875 171.65625 C 359.402344 171.65625 364.925781 175.925781 364.980469 175.96875 Z M 364.980469 175.96875 "/>
<g clip-path="url(#clip1)" clip-rule="nonzero">
<path style=" stroke:none;fill-rule:nonzero;fill:rgb(0%,0%,0%);fill-opacity:1;" d="M 332.097656 298.75 C 340.105469 298.75 347.238281 295.921875 351.839844 291.535156 L 352.128906 287.878906 L 352.585938 282.117188 C 351.949219 284.160156 350.164062 286.011719 347.578125 287.5 C 343.691406 289.734375 337.988281 291.148438 331.625 291.148438 C 326.207031 291.148438 321.265625 290.125 317.515625 288.4375 C 313.15625 286.476562 310.40625 283.621094 310.40625 280.441406 C 310.40625 280.398438 310.414062 280.351562 310.414062 280.304688 L 310.414062 278.617188 L 310.332031 278.617188 L 309.921875 286.675781 L 309.824219 288.59375 C 314.011719 294.621094 322.421875 298.75 332.097656 298.75 Z M 326.601562 420.757812 L 325.867188 425.964844 L 340.46875 428.410156 C 340.445312 428.5625 340.546875 428.710938 340.703125 428.738281 L 340.960938 428.78125 L 340.058594 440.144531 L 302.089844 440.144531 L 303.421875 414.03125 Z M 325.417969 376.898438 C 324.753906 375.964844 323.996094 375.121094 323.171875 374.363281 L 321.269531 371.847656 C 317.472656 366.820312 312.097656 363.199219 306.09375 361.710938 L 309.777344 289.492188 C 314.199219 295.355469 322.542969 299.320312 332.097656 299.320312 C 339.992188 299.320312 347.058594 296.617188 351.773438 292.371094 L 344.820312 380.074219 L 332.605469 379.125 Z M 352.863281 278.617188 L 352.800781 279.410156 L 352.800781 278.617188 Z M 352.863281 278.617188 "/>
</g>
<path style=" stroke:none;fill-rule:nonzero;fill:rgb(59.999084%,32.939148%,23.529053%);fill-opacity:1;" d="M 331.625 291.148438 C 337.988281 291.148438 343.691406 289.734375 347.578125 287.5 C 350.164062 286.011719 351.949219 284.160156 352.585938 282.117188 L 352.71875 280.441406 L 352.78125 279.648438 L 352.800781 279.410156 L 352.800781 275.722656 L 352.804688 269.734375 L 352.8125 258.421875 L 352.816406 250.085938 L 350.714844 240.621094 L 350.515625 239.710938 L 350.15625 238.101562 L 348.703125 240.660156 L 346.042969 245.324219 L 343.800781 249.257812 L 339.535156 256.746094 L 340.058594 257.332031 L 334.464844 265.660156 C 334.578125 265.738281 334.625 265.886719 334.566406 266.015625 C 334.496094 266.160156 333.804688 267.527344 331.980469 269.15625 C 331.765625 269.347656 331.535156 269.542969 331.289062 269.738281 C 330.191406 270.613281 328.773438 271.527344 326.953125 272.351562 C 325.292969 273.179688 323.515625 273.773438 321.667969 274.097656 C 320.105469 274.457031 318.367188 274.738281 316.433594 274.910156 C 315.429688 275 314.371094 275.058594 313.257812 275.085938 C 312.851562 275.09375 312.445312 275.101562 312.023438 275.101562 C 311.5 275.101562 310.960938 275.09375 310.414062 275.082031 L 310.414062 280.304688 C 310.414062 280.351562 310.40625 280.398438 310.40625 280.441406 C 310.40625 283.621094 313.15625 286.476562 317.515625 288.4375 C 321.265625 290.125 326.207031 291.148438 331.625 291.148438 Z M 322.941406 238.519531 L 343.453125 221.230469 C 341 220.355469 333.738281 217.382812 330.90625 212.054688 C 329.257812 208.953125 328.433594 205.726562 328.035156 202.960938 C 327.429688 198.753906 327.816406 195.613281 327.816406 195.613281 C 327.816406 195.613281 322.925781 202.851562 314.566406 199.863281 C 313.679688 199.542969 312.914062 199.152344 312.253906 198.710938 C 313.195312 199.785156 314.339844 200.722656 315.703125 201.296875 C 318.460938 202.453125 321.679688 201.945312 325.265625 199.785156 C 325.402344 199.703125 325.578125 199.746094 325.660156 199.878906 C 325.738281 200.015625 325.695312 200.191406 325.5625 200.273438 C 323.128906 201.738281 320.851562 202.472656 318.746094 202.472656 C 317.605469 202.472656 316.515625 202.253906 315.484375 201.820312 C 313.261719 200.890625 311.617188 199.097656 310.433594 197.25 C 310.335938 197.09375 310.238281 196.933594 310.144531 196.777344 C 308.898438 195.210938 308.375 193.507812 308.160156 192.332031 C 307.96875 191.734375 307.871094 191.339844 307.855469 191.269531 C 307.84375 191.226562 307.847656 191.183594 307.855469 191.144531 C 307.515625 191.804688 306.585938 193.558594 305.246094 195.671875 C 304.277344 197.203125 303.09375 198.921875 301.761719 200.558594 C 300.980469 201.515625 300.148438 202.449219 299.277344 203.292969 C 298.351562 204.195312 297.382812 204.996094 296.386719 205.636719 C 292.042969 208.429688 289.140625 208.195312 287.535156 207.585938 C 287.5 207.871094 287.464844 208.21875 287.429688 208.609375 C 287.238281 210.78125 287.125 214.535156 287.902344 219 C 287.929688 219.15625 287.824219 219.304688 287.667969 219.332031 C 287.652344 219.335938 287.636719 219.335938 287.621094 219.335938 C 287.484375 219.335938 287.363281 219.238281 287.339844 219.097656 C 286.558594 214.601562 286.667969 210.804688 286.859375 208.589844 C 286.863281 208.5625 286.863281 208.542969 286.867188 208.515625 C 286.859375 208.539062 286.855469 208.566406 286.847656 208.589844 C 285.929688 212.289062 285.457031 216.4375 285.5625 221.078125 C 285.5625 221.132812 285.5625 221.195312 285.566406 221.253906 C 285.644531 224.777344 285.71875 229.894531 285.835938 235.09375 C 285.882812 237.175781 285.9375 239.273438 286 241.285156 L 297.472656 240.425781 L 309.921875 239.496094 Z M 310.410156 227.226562 C 310.351562 225.875 311.050781 224.742188 311.972656 224.703125 C 312.894531 224.660156 313.691406 225.726562 313.75 227.082031 C 313.808594 228.433594 313.109375 229.566406 312.1875 229.605469 C 311.265625 229.648438 310.46875 228.582031 310.410156 227.226562 Z M 297.203125 239.847656 L 299.101562 232.582031 L 301.179688 224.628906 C 301.21875 224.476562 301.371094 224.386719 301.527344 224.425781 C 301.679688 224.464844 301.769531 224.621094 301.730469 224.773438 L 299.65625 232.707031 L 297.757812 239.992188 C 297.722656 240.121094 297.605469 240.207031 297.480469 240.207031 C 297.457031 240.207031 297.433594 240.203125 297.410156 240.195312 C 297.257812 240.15625 297.164062 240 297.203125 239.847656 Z M 294.640625 229.605469 C 293.71875 229.648438 292.921875 228.582031 292.863281 227.226562 C 292.804688 225.875 293.503906 224.742188 294.425781 224.703125 C 295.347656 224.660156 296.144531 225.726562 296.203125 227.082031 C 296.261719 228.433594 295.5625 229.566406 294.640625 229.605469 Z M 308 190.855469 C 308 190.855469 308 190.894531 308.003906 190.957031 C 307.96875 190.976562 307.9375 190.996094 307.914062 191.027344 C 307.96875 190.921875 308 190.855469 308 190.855469 Z M 315.753906 274.390625 C 315.179688 274.433594 314.589844 274.46875 313.984375 274.492188 C 313.621094 274.507812 313.246094 274.515625 312.875 274.519531 C 312.078125 274.535156 311.265625 274.535156 310.414062 274.511719 L 310.414062 274.390625 Z M 351.28125 235.207031 C 350.71875 235.242188 350.128906 235.25 349.515625 235.214844 L 349.972656 237.273438 L 347.765625 241.148438 L 344.503906 246.875 L 343.503906 248.632812 L 339.136719 256.296875 L 337.246094 254.183594 L 332.667969 249.0625 L 329.429688 245.4375 L 323.5 238.796875 L 343.410156 222.015625 L 343.332031 221.851562 C 343.332031 221.851562 343.527344 221.667969 343.875 221.378906 C 344.273438 221.046875 344.867188 220.578125 345.609375 220.066406 C 345.824219 219.917969 346.054688 219.761719 346.296875 219.609375 C 347.503906 218.839844 348.988281 218.050781 350.582031 217.566406 C 353.304688 216.734375 356.335938 216.796875 358.816406 219.375 C 359.386719 219.972656 359.929688 220.714844 360.433594 221.597656 L 351.832031 224.027344 L 348.378906 225.003906 L 347.667969 225.207031 L 345.886719 225.710938 L 345.25 225.890625 C 345.234375 225.894531 345.226562 225.902344 345.210938 225.910156 C 345.085938 225.96875 345.015625 226.105469 345.054688 226.242188 C 345.089844 226.367188 345.203125 226.449219 345.328125 226.449219 C 345.355469 226.449219 345.378906 226.445312 345.40625 226.4375 L 345.449219 226.425781 L 346.089844 226.242188 L 346.910156 226.011719 L 348.671875 225.515625 L 351.917969 224.597656 L 360.660156 222.125 C 360.675781 222.121094 360.691406 222.109375 360.707031 222.101562 C 362.273438 225.363281 361.03125 230.570312 356.929688 233.347656 C 356.460938 233.664062 355.953125 233.945312 355.410156 234.195312 C 355.15625 234.296875 354.132812 234.691406 352.816406 234.96875 C 352.617188 235.011719 352.410156 235.050781 352.195312 235.089844 C 351.898438 235.136719 351.59375 235.175781 351.28125 235.207031 Z M 300.625 360.964844 C 301.09375 360.976562 301.5625 361.003906 302.027344 361.039062 C 302.023438 361.078125 302.027344 361.113281 302.039062 361.152344 C 302.042969 361.160156 302.355469 362.132812 301.941406 362.8125 C 301.726562 363.160156 301.347656 363.382812 300.808594 363.46875 C 299.199219 363.734375 297.507812 363.410156 296.789062 362.703125 C 296.472656 362.390625 296.351562 362.027344 296.417969 361.59375 C 296.425781 361.542969 296.414062 361.496094 296.398438 361.453125 C 297.570312 361.058594 299.03125 360.925781 300.625 360.964844 Z M 284.53125 377.5 C 282.957031 377.5 281.039062 376.539062 281.039062 375.417969 C 281.039062 374.292969 282.957031 373.332031 284.53125 373.332031 C 285.9375 373.332031 286.742188 374.09375 286.742188 375.417969 C 286.742188 376.742188 285.9375 377.5 284.53125 377.5 Z M 281.851562 397.324219 C 281.699219 397.425781 281.523438 397.5 281.324219 397.554688 C 281.109375 397.617188 280.871094 397.652344 280.605469 397.652344 C 279.191406 397.652344 277.46875 396.792969 277.46875 395.792969 C 277.46875 394.84375 279.011719 394.023438 280.375 393.9375 C 280.453125 393.933594 280.53125 393.929688 280.605469 393.929688 C 280.734375 393.929688 280.851562 393.941406 280.96875 393.957031 C 281.996094 394.078125 282.582031 394.730469 282.582031 395.792969 C 282.582031 396.492188 282.324219 397.011719 281.851562 397.324219 Z M 284.21875 406.355469 C 284.089844 406.378906 283.953125 406.398438 283.800781 406.398438 C 283.746094 406.398438 283.691406 406.390625 283.636719 406.386719 C 282.523438 406.324219 281.402344 405.648438 281.402344 405 C 281.402344 404.488281 282.097656 403.957031 282.941406 403.722656 C 283.125 403.675781 283.3125 403.644531 283.503906 403.625 C 283.601562 403.617188 283.703125 403.601562 283.800781 403.601562 C 284.746094 403.601562 285.289062 404.113281 285.289062 405 C 285.289062 405.746094 284.902344 406.21875 284.21875 406.355469 Z M 268.5625 383.730469 C 267.125 386.679688 274.277344 389.585938 279.6875 391.308594 C 279.90625 391.378906 280.121094 391.449219 280.332031 391.511719 C 281.46875 391.867188 282.496094 392.160156 283.324219 392.386719 C 283.691406 392.484375 284.015625 392.570312 284.292969 392.644531 C 284.324219 392.523438 284.425781 392.433594 284.554688 392.429688 C 294.015625 392.105469 303.628906 393.832031 303.726562 393.851562 C 303.878906 393.878906 303.984375 394.027344 303.953125 394.183594 C 303.929688 394.320312 303.808594 394.417969 303.675781 394.417969 C 303.65625 394.417969 303.640625 394.414062 303.625 394.410156 C 303.527344 394.394531 293.972656 392.679688 284.570312 393 C 284.457031 393.007812 284.359375 392.941406 284.3125 392.847656 C 284.058594 392.835938 283.765625 392.832031 283.441406 392.832031 C 282.652344 392.832031 281.691406 392.875 280.722656 393.011719 C 280.535156 393.035156 280.34375 393.066406 280.15625 393.101562 C 277.980469 393.496094 275.917969 394.425781 275.8125 396.53125 C 275.699219 398.800781 278.886719 399.933594 282.09375 400.496094 C 282.300781 400.535156 282.507812 400.566406 282.710938 400.597656 C 283.714844 400.753906 284.699219 400.859375 285.5625 400.925781 C 286.386719 400.992188 287.097656 401.023438 287.617188 401.042969 C 287.652344 400.960938 287.722656 400.894531 287.820312 400.878906 C 294.203125 399.71875 299.921875 401.34375 299.980469 401.363281 C 300.128906 401.40625 300.21875 401.5625 300.171875 401.714844 C 300.136719 401.839844 300.023438 401.921875 299.898438 401.921875 C 299.875 401.921875 299.847656 401.917969 299.820312 401.910156 C 299.765625 401.894531 294.175781 400.304688 287.921875 401.4375 C 287.777344 401.464844 287.617188 401.363281 287.589844 401.207031 C 287.105469 401.292969 286.457031 401.421875 285.738281 401.597656 C 284.933594 401.789062 284.039062 402.042969 283.171875 402.363281 C 282.992188 402.429688 282.8125 402.496094 282.636719 402.570312 C 280.816406 403.316406 279.265625 404.371094 279.246094 405.816406 C 279.226562 407.0625 281.328125 408.191406 284.054688 409.128906 C 284.246094 409.191406 284.433594 409.257812 284.628906 409.320312 C 285.511719 409.605469 286.445312 409.871094 287.386719 410.117188 C 291.734375 411.253906 296.199219 411.933594 296.199219 411.933594 L 303.421875 414.03125 L 326.601562 420.757812 L 332.378906 379.675781 C 332.230469 379.65625 332.121094 379.523438 332.132812 379.375 C 332.144531 379.21875 332.273438 379.097656 332.441406 379.113281 L 332.605469 379.125 L 325.417969 376.898438 C 324.753906 375.964844 323.996094 375.121094 323.171875 374.363281 L 321.269531 371.847656 C 317.472656 366.820312 312.097656 363.199219 306.09375 361.710938 C 304.953125 361.429688 303.792969 361.222656 302.617188 361.101562 C 302.703125 361.429688 302.882812 362.355469 302.429688 363.105469 C 302.128906 363.605469 301.613281 363.917969 300.898438 364.03125 C 300.523438 364.09375 300.113281 364.128906 299.691406 364.128906 C 298.453125 364.128906 297.128906 363.839844 296.386719 363.109375 C 295.984375 362.710938 295.808594 362.214844 295.847656 361.671875 C 295.671875 361.75 295.507812 361.835938 295.351562 361.929688 C 291.707031 364.117188 298.222656 368.039062 302.234375 370.097656 C 294.488281 370.363281 286.320312 371.167969 282.15625 373.199219 C 274.878906 376.75 282.898438 379.742188 286.714844 380.871094 C 294.757812 380.625 302.84375 381.835938 305.046875 382.199219 C 305.414062 382.257812 305.621094 382.296875 305.636719 382.300781 C 305.789062 382.328125 305.894531 382.476562 305.867188 382.628906 C 305.839844 382.769531 305.71875 382.863281 305.585938 382.863281 C 305.566406 382.863281 305.550781 382.863281 305.535156 382.859375 C 305.519531 382.859375 305.339844 382.824219 305.019531 382.773438 C 302.910156 382.425781 294.640625 381.171875 286.484375 381.449219 C 286.34375 381.460938 286.195312 381.328125 286.1875 381.171875 C 286.1875 381.152344 286.195312 381.132812 286.199219 381.113281 C 284.675781 380.980469 282.550781 380.832031 280.292969 380.804688 C 279.382812 380.792969 278.453125 380.804688 277.535156 380.839844 C 277.339844 380.847656 277.144531 380.855469 276.953125 380.867188 C 273.082031 381.070312 269.503906 381.808594 268.5625 383.730469 Z M 287.3125 375.417969 C 287.3125 377.054688 286.246094 378.070312 284.53125 378.070312 C 282.652344 378.070312 280.46875 376.910156 280.46875 375.417969 C 280.46875 373.921875 282.652344 372.761719 284.53125 372.761719 C 286.246094 372.761719 287.3125 373.78125 287.3125 375.417969 Z M 305.027344 370.023438 C 305.246094 370.050781 305.453125 370.085938 305.664062 370.117188 C 310.351562 370.84375 312.761719 372.394531 312.882812 372.472656 C 313.011719 372.558594 313.050781 372.734375 312.960938 372.867188 C 312.90625 372.949219 312.816406 372.996094 312.722656 372.996094 C 312.671875 372.996094 312.617188 372.980469 312.566406 372.949219 C 312.539062 372.929688 310.171875 371.414062 305.632812 370.691406 C 304.765625 370.554688 303.824219 370.445312 302.796875 370.382812 C 302.734375 370.378906 302.675781 370.371094 302.613281 370.367188 C 302.484375 370.363281 302.386719 370.273438 302.355469 370.160156 C 302.351562 370.136719 302.347656 370.117188 302.347656 370.09375 C 302.347656 370.085938 302.34375 370.078125 302.34375 370.066406 C 302.351562 369.910156 302.496094 369.789062 302.644531 369.800781 C 303.492188 369.847656 304.285156 369.925781 305.027344 370.023438 Z M 285.859375 405 C 285.859375 406.027344 285.289062 406.71875 284.351562 406.910156 C 284.175781 406.945312 283.996094 406.96875 283.800781 406.96875 C 283.792969 406.96875 283.785156 406.96875 283.777344 406.96875 C 282.410156 406.957031 280.832031 406.101562 280.832031 405 C 280.832031 404.160156 281.753906 403.460938 282.796875 403.175781 C 282.980469 403.125 283.167969 403.085938 283.355469 403.0625 C 283.503906 403.042969 283.652344 403.03125 283.800781 403.03125 C 285.070312 403.03125 285.859375 403.785156 285.859375 405 Z M 283.152344 395.792969 C 283.152344 396.769531 282.730469 397.5 282.003906 397.894531 C 281.839844 397.984375 281.660156 398.050781 281.46875 398.101562 C 281.203125 398.175781 280.921875 398.222656 280.605469 398.222656 C 278.890625 398.222656 276.898438 397.160156 276.898438 395.792969 C 276.898438 394.519531 278.613281 393.515625 280.230469 393.378906 C 280.355469 393.367188 280.480469 393.359375 280.605469 393.359375 C 280.679688 393.359375 280.746094 393.371094 280.820312 393.375 C 282.261719 393.460938 283.152344 394.363281 283.152344 395.792969 Z M 270.605469 384.183594 C 270.605469 382.824219 272.582031 381.769531 274.285156 381.769531 C 275.847656 381.769531 276.816406 382.695312 276.816406 384.183594 C 276.816406 385.671875 275.847656 386.597656 274.285156 386.597656 C 272.582031 386.597656 270.605469 385.542969 270.605469 384.183594 Z M 274.285156 382.339844 C 275.53125 382.339844 276.246094 383.011719 276.246094 384.183594 C 276.246094 385.355469 275.53125 386.027344 274.285156 386.027344 C 272.886719 386.027344 271.175781 385.175781 271.175781 384.183594 C 271.175781 383.191406 272.886719 382.339844 274.285156 382.339844 Z M 178.476562 397.191406 C 179.246094 401.484375 187.265625 401.492188 194.5625 400.332031 C 195.378906 400.203125 196.183594 400.0625 196.96875 399.910156 C 196.261719 399.953125 195.570312 399.976562 194.90625 399.976562 C 194.753906 399.976562 194.613281 399.96875 194.464844 399.96875 C 186.988281 399.863281 182.421875 397.136719 182.367188 397.101562 C 182.230469 397.019531 182.191406 396.84375 182.273438 396.710938 C 182.355469 396.578125 182.527344 396.535156 182.664062 396.617188 C 182.71875 396.648438 187.09375 399.265625 194.316406 399.402344 C 195.90625 399.429688 197.625 399.34375 199.472656 399.078125 C 199.617188 399.058594 199.753906 399.152344 199.785156 399.292969 C 202.164062 398.722656 204.171875 398.097656 205.398438 397.582031 C 210.574219 395.402344 210.789062 391.695312 210.789062 391.695312 C 210.925781 391.695312 211.066406 391.695312 211.207031 391.691406 C 211.058594 391.691406 210.871094 391.691406 210.632812 391.691406 C 208.03125 391.691406 200.214844 391.625 192.09375 390.914062 C 188.972656 390.640625 185.808594 390.269531 182.875 389.773438 C 182.722656 389.746094 182.617188 389.601562 182.644531 389.445312 C 182.671875 389.289062 182.820312 389.1875 182.972656 389.210938 C 185.824219 389.695312 188.898438 390.054688 191.941406 390.328125 C 200.105469 391.054688 208.015625 391.121094 210.628906 391.121094 C 211.21875 391.121094 211.511719 391.121094 211.53125 391.117188 C 211.6875 391.117188 211.816406 391.242188 211.816406 391.398438 C 211.816406 391.527344 211.730469 391.632812 211.613281 391.671875 C 215.773438 391.417969 221.257812 389.320312 220.941406 386.300781 C 220.667969 383.695312 218.144531 382.371094 217.179688 381.953125 C 217.175781 381.96875 217.179688 381.984375 217.179688 382 C 217.148438 382.136719 217.03125 382.226562 216.898438 382.226562 C 216.878906 382.226562 216.859375 382.226562 216.839844 382.222656 C 216.75 382.203125 207.449219 380.316406 198.230469 379.679688 C 194.617188 379.433594 191.496094 379.292969 189.03125 379.21875 C 185.207031 379.101562 182.964844 379.136719 182.929688 379.136719 C 182.929688 379.136719 182.925781 379.136719 182.925781 379.136719 C 182.769531 379.136719 182.640625 379.011719 182.640625 378.855469 C 182.636719 378.699219 182.761719 378.566406 182.921875 378.566406 C 182.957031 378.566406 185.144531 378.53125 188.878906 378.644531 C 191.375 378.71875 194.566406 378.855469 198.269531 379.113281 C 207.027344 379.714844 215.851562 381.441406 216.855469 381.644531 C 220.992188 369.71875 198.984375 367.890625 192.261719 367.609375 C 192.253906 367.765625 192.132812 367.882812 191.976562 367.882812 C 191.976562 367.882812 191.972656 367.882812 191.972656 367.882812 L 186.023438 367.75 L 182.78125 367.675781 C 182.625 367.671875 182.5 367.539062 182.503906 367.382812 C 182.507812 367.226562 182.632812 367.105469 182.792969 367.105469 L 185.875 367.175781 L 190.542969 367.28125 L 193.589844 362.710938 C 190.308594 362.121094 188.457031 360.578125 188.378906 360.511719 C 188.257812 360.410156 188.246094 360.230469 188.347656 360.109375 C 188.449219 359.992188 188.628906 359.976562 188.75 360.078125 C 188.765625 360.09375 190.691406 361.695312 194.019531 362.207031 C 194.171875 362.230469 194.273438 362.371094 194.257812 362.519531 C 197.300781 362.847656 213.269531 364.328125 214.652344 359.71875 C 216.179688 354.625 193.816406 349.574219 187.46875 352.585938 C 186.238281 353.167969 185.019531 354.304688 183.867188 355.773438 C 183.984375 355.863281 184.011719 356.03125 183.925781 356.15625 L 183.65625 356.554688 L 183.25 357.152344 L 180.667969 360.953125 L 180.386719 361.363281 C 180.332031 361.445312 180.242188 361.488281 180.152344 361.488281 C 180.09375 361.488281 180.039062 361.472656 179.992188 361.441406 C 179.859375 361.351562 179.828125 361.175781 179.914062 361.042969 L 183.054688 356.421875 L 183.4375 355.863281 L 180.910156 347.855469 L 180.875 348.089844 L 177.265625 370.3125 C 177.105469 371.046875 176.992188 371.734375 176.933594 372.34375 C 176.398438 377.929688 177.28125 390.515625 178.476562 397.191406 Z M 202.25 358.144531 C 202.351562 356.757812 203.136719 355.359375 204.671875 355.359375 C 205.832031 355.363281 210.257812 356.984375 210.515625 358.625 C 210.628906 359.359375 210.023438 359.945312 208.710938 360.371094 C 207.589844 360.734375 206.125 360.898438 204.917969 360.898438 C 204.421875 360.898438 203.96875 360.871094 203.597656 360.816406 C 202.597656 360.675781 202.164062 359.363281 202.25 358.144531 Z M 205.882812 375.839844 C 206.03125 374.367188 207.117188 372.863281 208.902344 372.851562 C 208.914062 372.851562 208.925781 372.847656 208.9375 372.847656 C 211.277344 372.847656 214.039062 374.792969 214.234375 376.585938 C 214.300781 377.210938 214.097656 378.328125 211.972656 378.773438 C 211.449219 378.882812 210.664062 378.9375 209.878906 378.9375 C 209.097656 378.9375 208.316406 378.882812 207.808594 378.773438 C 206.484375 378.484375 205.726562 377.335938 205.882812 375.839844 Z M 207.546875 385.191406 C 207.789062 384.074219 208.515625 383.382812 209.535156 383.289062 C 210.851562 383.171875 216.484375 384.171875 217.320312 386.144531 C 217.511719 386.589844 217.542969 387.285156 216.628906 388.070312 C 215.765625 388.816406 213.996094 389.105469 212.296875 389.105469 C 210.691406 389.105469 209.148438 388.847656 208.480469 388.46875 C 207.703125 388.023438 207.265625 386.496094 207.546875 385.191406 Z M 198.382812 394.996094 C 198.445312 393.910156 198.910156 392.578125 200.023438 392.410156 C 200.949219 392.269531 204.375 393.058594 204.914062 394.503906 C 205.09375 394.980469 205.042969 395.710938 203.789062 396.507812 C 202.757812 397.160156 201.359375 397.355469 200.351562 397.355469 C 199.859375 397.355469 199.457031 397.308594 199.238281 397.25 C 198.566406 397.066406 198.324219 395.988281 198.382812 394.996094 Z M 208.90625 373.417969 C 208.917969 373.417969 208.929688 373.417969 208.941406 373.417969 C 211.160156 373.417969 213.515625 375.257812 213.667969 376.644531 C 213.769531 377.605469 212.738281 378.03125 211.855469 378.214844 C 210.886719 378.417969 208.867188 378.417969 207.929688 378.214844 C 206.6875 377.945312 206.355469 376.800781 206.449219 375.898438 C 206.574219 374.675781 207.457031 373.433594 208.90625 373.417969 Z M 204.671875 355.929688 C 205.761719 355.933594 209.765625 357.515625 209.953125 358.714844 C 210.035156 359.230469 209.226562 359.605469 208.535156 359.828125 C 207.035156 360.3125 204.890625 360.425781 203.679688 360.253906 C 203.121094 360.171875 202.742188 359.265625 202.820312 358.1875 C 202.894531 357.144531 203.421875 355.929688 204.671875 355.929688 Z M 200.109375 392.976562 C 200.167969 392.964844 200.234375 392.960938 200.316406 392.960938 C 201.359375 392.960938 204.015625 393.722656 204.382812 394.703125 C 204.53125 395.105469 204.230469 395.550781 203.484375 396.027344 C 202.183594 396.851562 200.023438 396.871094 199.386719 396.699219 C 199.140625 396.628906 198.898438 395.929688 198.953125 395.03125 C 199.007812 394.085938 199.382812 393.085938 200.109375 392.976562 Z M 209.585938 383.855469 C 209.65625 383.851562 209.734375 383.847656 209.824219 383.847656 C 211.441406 383.847656 216.164062 384.875 216.796875 386.367188 C 216.859375 386.511719 217.046875 386.960938 216.257812 387.640625 C 214.792969 388.898438 209.972656 388.65625 208.761719 387.972656 C 208.265625 387.6875 207.859375 386.441406 208.105469 385.3125 C 208.238281 384.699219 208.601562 383.945312 209.585938 383.855469 Z M 209.585938 383.855469 "/>
<g clip-path="url(#clip2)" clip-rule="nonzero">
<path style=" stroke:none;fill-rule:nonzero;fill:rgb(100%,100%,100%);fill-opacity:1;" d="M 310.414062 274.390625 L 315.753906 274.390625 C 315.96875 274.375 316.179688 274.355469 316.386719 274.335938 C 316.707031 274.308594 317.019531 274.273438 317.328125 274.238281 C 323.59375 273.523438 327.671875 271.597656 330.230469 269.761719 C 330.734375 269.398438 331.1875 269.035156 331.578125 268.691406 C 333.375 267.101562 334.035156 265.800781 334.050781 265.769531 C 334.121094 265.625 334.289062 265.566406 334.429688 265.632812 C 334.445312 265.640625 334.453125 265.652344 334.464844 265.660156 L 340.058594 257.332031 L 339.535156 256.746094 L 343.800781 249.257812 L 346.042969 245.324219 L 348.703125 240.660156 L 350.15625 238.101562 L 349.972656 237.273438 L 347.765625 241.148438 L 344.503906 246.875 L 343.503906 248.632812 L 339.136719 256.296875 L 337.246094 254.183594 L 332.667969 249.0625 L 329.429688 245.4375 L 323.5 238.796875 L 343.410156 222.015625 L 343.332031 221.851562 C 343.332031 221.851562 343.527344 221.667969 343.875 221.378906 C 343.757812 221.339844 343.617188 221.289062 343.453125 221.230469 L 322.941406 238.519531 L 309.921875 239.496094 L 297.472656 240.425781 L 286 241.285156 L 285.882812 241.292969 L 285.996094 244.292969 L 286.550781 258.6875 C 286.660156 261.636719 287.554688 264.375 289.019531 266.714844 C 291.332031 270.40625 295.074219 273.097656 299.457031 274.027344 L 299.433594 274.070312 C 299.464844 274.054688 299.5 274.046875 299.539062 274.046875 C 299.546875 274.046875 299.554688 274.042969 299.566406 274.042969 L 307.625 274.390625 L 310.414062 274.511719 Z M 402.015625 438.757812 L 401.597656 438.6875 L 392.125 437.046875 L 343.480469 428.636719 L 351.753906 381.183594 L 374.574219 382.953125 L 391.917969 387.855469 C 392.070312 387.902344 392.226562 387.8125 392.269531 387.660156 C 392.3125 387.507812 392.226562 387.351562 392.074219 387.308594 L 376.289062 382.84375 L 387.105469 382.121094 C 387.261719 382.109375 387.378906 381.972656 387.371094 381.816406 C 387.359375 381.660156 387.214844 381.539062 387.066406 381.550781 L 374.929688 382.363281 L 376.929688 349.65625 C 376.933594 349.648438 376.933594 349.636719 376.933594 349.625 L 378.566406 322.9375 C 378.578125 322.78125 378.457031 322.644531 378.300781 322.636719 C 378.152344 322.625 378.007812 322.746094 378 322.902344 L 376.507812 347.21875 L 373.039062 327.699219 C 373.011719 327.546875 372.867188 327.441406 372.707031 327.46875 C 372.554688 327.496094 372.449219 327.644531 372.476562 327.800781 L 376.359375 349.640625 L 374.425781 381.21875 L 374.355469 382.363281 L 351.550781 380.59375 C 351.542969 380.59375 351.535156 380.59375 351.527344 380.59375 L 344.820312 380.074219 L 351.773438 292.371094 L 351.839844 291.535156 L 352.128906 287.878906 L 352.585938 282.117188 L 352.71875 280.441406 L 352.78125 279.648438 L 352.800781 279.410156 L 352.863281 278.617188 L 352.800781 278.617188 L 352.800781 275.722656 L 352.804688 269.734375 L 355.8125 269.734375 C 357.765625 269.734375 359.648438 270.324219 361.242188 271.375 C 362.085938 271.925781 362.851562 272.601562 363.5 273.402344 L 367.375 278.195312 C 367.316406 278.175781 367.25 278.175781 367.191406 278.203125 C 367.082031 278.246094 367.015625 278.351562 367.015625 278.460938 C 367.015625 278.5 367.023438 278.539062 367.039062 278.574219 L 367.054688 278.617188 L 367.515625 279.703125 L 368.210938 281.351562 L 372.085938 290.539062 L 362.753906 283.566406 L 361.027344 282.277344 L 357.75 279.832031 L 357.515625 279.65625 L 356.121094 278.617188 L 355.738281 278.328125 L 355.589844 278.21875 C 355.464844 278.125 355.285156 278.148438 355.191406 278.277344 C 355.183594 278.289062 355.179688 278.304688 355.171875 278.320312 C 355.121094 278.417969 355.132812 278.53125 355.195312 278.617188 C 355.214844 278.636719 355.226562 278.660156 355.25 278.675781 L 357.195312 280.125 L 357.75 280.542969 L 361.132812 283.070312 L 361.796875 283.5625 L 361.363281 284.128906 L 361.289062 284.226562 L 355.933594 291.222656 C 355.835938 291.347656 355.859375 291.523438 355.984375 291.621094 C 356.035156 291.660156 356.097656 291.679688 356.160156 291.679688 C 356.242188 291.679688 356.328125 291.640625 356.382812 291.566406 L 361.398438 285.023438 L 362.253906 283.90625 L 372.589844 291.625 C 372.691406 291.699219 372.832031 291.699219 372.933594 291.621094 C 373.035156 291.539062 373.070312 291.402344 373.019531 291.285156 L 368.738281 281.136719 L 368.230469 279.9375 L 367.675781 278.617188 L 367.628906 278.507812 L 367.613281 278.46875 L 380.132812 278.617188 L 391.996094 278.617188 C 408.121094 278.617188 421.394531 291.3125 422.105469 307.421875 L 426.875 415.164062 C 427.488281 429.035156 415.605469 440.046875 402.015625 438.652344 Z M 343.09375 429.148438 C 343.101562 429.152344 343.105469 429.152344 343.113281 429.152344 L 401.671875 439.277344 L 402.015625 439.335938 L 402.015625 440.144531 L 340.058594 440.144531 L 340.960938 428.78125 Z M 242.140625 421.097656 L 272.402344 421.097656 C 272.402344 421.257812 272.53125 421.382812 272.6875 421.382812 C 273.574219 421.382812 274.445312 421.285156 275.292969 421.097656 L 275.75 421.097656 C 282.121094 421.097656 287.050781 416.074219 287.386719 410.117188 C 291.734375 411.253906 296.199219 411.933594 296.199219 411.933594 L 303.421875 414.03125 L 302.089844 440.144531 L 240.132812 440.144531 Z M 283.441406 392.832031 L 283.324219 392.386719 C 283.691406 392.484375 284.015625 392.570312 284.292969 392.644531 C 284.285156 392.667969 284.277344 392.695312 284.277344 392.722656 C 284.277344 392.769531 284.292969 392.808594 284.3125 392.847656 C 284.058594 392.835938 283.765625 392.832031 283.441406 392.832031 Z M 287.589844 401.207031 C 287.105469 401.292969 286.457031 401.421875 285.738281 401.597656 L 285.5625 400.925781 C 286.386719 400.992188 287.097656 401.023438 287.617188 401.042969 C 287.59375 401.09375 287.578125 401.148438 287.589844 401.207031 Z M 302.582031 360.972656 C 302.53125 360.820312 302.367188 360.742188 302.222656 360.789062 C 302.109375 360.828125 302.035156 360.929688 302.027344 361.039062 C 301.5625 361.003906 301.09375 360.976562 300.625 360.964844 C 299.03125 360.925781 297.570312 361.058594 296.398438 361.453125 C 296.363281 361.359375 296.285156 361.285156 296.175781 361.269531 C 296.023438 361.25 295.875 361.351562 295.851562 361.507812 C 295.84375 361.5625 295.851562 361.617188 295.847656 361.671875 C 295.671875 361.75 295.507812 361.835938 295.351562 361.929688 C 291.707031 364.117188 298.222656 368.039062 302.234375 370.097656 C 294.488281 370.363281 286.320312 371.167969 282.15625 373.199219 C 274.878906 376.75 282.898438 379.742188 286.714844 380.871094 C 286.628906 380.875 286.546875 380.875 286.464844 380.878906 C 286.328125 380.882812 286.222656 380.984375 286.199219 381.113281 C 284.675781 380.980469 282.550781 380.832031 280.292969 380.804688 L 270.746094 344.371094 L 268.242188 334.8125 L 272.210938 306.304688 C 272.234375 306.148438 272.125 306.003906 271.96875 305.984375 C 271.816406 305.960938 271.667969 306.070312 271.648438 306.226562 L 267.867188 333.378906 L 263.714844 317.542969 C 262.503906 312.914062 258.605469 309.5625 253.960938 308.953125 L 254.851562 300.496094 C 256.125 288.414062 266.957031 278.617188 279.042969 278.617188 L 297.050781 278.039062 C 297.003906 278.0625 296.960938 278.089844 296.933594 278.136719 L 296.429688 278.902344 L 290.921875 287.296875 C 290.851562 287.40625 290.863281 287.546875 290.953125 287.644531 C 291.039062 287.742188 291.183594 287.765625 291.296875 287.703125 L 300.300781 282.875 L 304.828125 291.933594 C 304.878906 292.03125 304.980469 292.089844 305.085938 292.089844 C 305.128906 292.089844 305.171875 292.078125 305.210938 292.058594 C 305.351562 291.988281 305.410156 291.816406 305.339844 291.675781 L 301.03125 283.066406 L 300.800781 282.605469 L 308.082031 278.699219 C 308.121094 278.675781 308.148438 278.648438 308.171875 278.617188 C 308.238281 278.53125 308.25 278.414062 308.199219 278.3125 C 308.121094 278.171875 307.949219 278.121094 307.8125 278.195312 L 307.027344 278.617188 L 299.722656 282.535156 L 292.015625 286.671875 L 295.777344 280.933594 L 297.179688 278.800781 L 297.410156 278.449219 C 297.496094 278.320312 297.457031 278.140625 297.328125 278.054688 C 297.308594 278.042969 297.289062 278.039062 297.273438 278.035156 C 297.230469 278.015625 297.1875 278.011719 297.144531 278.015625 L 299.273438 274.34375 C 299.28125 274.488281 299.394531 274.609375 299.542969 274.613281 L 310.394531 275.078125 C 310.402344 275.082031 310.40625 275.082031 310.414062 275.082031 L 310.414062 278.617188 L 310.332031 278.617188 L 309.921875 286.675781 L 309.824219 288.59375 L 309.777344 289.492188 L 306.09375 361.710938 C 304.953125 361.429688 303.792969 361.222656 302.617188 361.101562 C 302.597656 361.03125 302.585938 360.980469 302.582031 360.972656 Z M 336.027344 414.246094 C 337.976562 414.246094 339.5625 415.832031 339.5625 417.78125 C 339.5625 419.730469 337.976562 421.316406 336.027344 421.316406 C 334.078125 421.316406 332.492188 419.730469 332.492188 417.78125 C 332.492188 415.832031 334.078125 414.246094 336.027344 414.246094 Z M 326.601562 420.757812 L 325.867188 425.964844 L 340.46875 428.410156 C 340.46875 428.40625 340.46875 428.40625 340.46875 428.40625 C 340.496094 428.25 340.648438 428.148438 340.800781 428.175781 L 341.003906 428.210938 L 342.921875 428.542969 L 351.183594 381.136719 L 344.777344 380.640625 L 333.808594 379.789062 L 332.394531 379.679688 C 332.390625 379.679688 332.382812 379.675781 332.378906 379.675781 Z M 331.921875 417.78125 C 331.921875 415.515625 333.765625 413.675781 336.027344 413.675781 C 338.292969 413.675781 340.132812 415.515625 340.132812 417.78125 C 340.132812 420.042969 338.292969 421.886719 336.027344 421.886719 C 333.765625 421.886719 331.921875 420.042969 331.921875 417.78125 Z M 331.921875 417.78125 "/>
</g>
<path style=" stroke:none;fill-rule:nonzero;fill:rgb(0%,94.898987%,52.159119%);fill-opacity:1;" d="M 185.691406 308.84375 L 249.097656 308.84375 C 249.097656 309 249.222656 309.128906 249.382812 309.128906 C 250.953125 309.128906 252.464844 309.457031 253.847656 310.046875 C 257 311.394531 259.46875 314.140625 260.378906 317.613281 L 266.699219 341.742188 L 267.078125 343.175781 L 269.65625 353.03125 L 276.953125 380.867188 C 273.082031 381.070312 269.503906 381.808594 268.5625 383.730469 C 267.125 386.679688 274.277344 389.585938 279.6875 391.308594 L 280.15625 393.101562 C 277.980469 393.496094 275.917969 394.425781 275.8125 396.53125 C 275.699219 398.800781 278.886719 399.933594 282.09375 400.496094 L 282.636719 402.570312 C 280.816406 403.316406 279.265625 404.371094 279.246094 405.816406 C 279.226562 407.0625 281.328125 408.191406 284.054688 409.128906 C 284.136719 411.722656 283.320312 414.277344 281.6875 416.390625 C 279.519531 419.203125 276.238281 420.8125 272.6875 420.8125 C 272.53125 420.8125 272.402344 420.941406 272.402344 421.097656 L 208.996094 421.097656 C 203.699219 421.097656 199.066406 417.523438 197.722656 412.398438 L 194.5625 400.332031 C 195.378906 400.203125 196.183594 400.0625 196.96875 399.910156 C 197.804688 399.855469 198.664062 399.769531 199.554688 399.640625 C 199.710938 399.621094 199.820312 399.476562 199.796875 399.320312 C 199.792969 399.308594 199.789062 399.300781 199.785156 399.292969 C 202.164062 398.722656 204.171875 398.097656 205.398438 397.582031 C 210.574219 395.402344 210.789062 391.695312 210.789062 391.695312 C 210.925781 391.695312 211.066406 391.695312 211.207031 391.691406 C 211.402344 391.6875 211.523438 391.6875 211.535156 391.6875 C 211.5625 391.6875 211.589844 391.679688 211.613281 391.671875 C 215.773438 391.417969 221.257812 389.320312 220.941406 386.300781 C 220.667969 383.695312 218.144531 382.371094 217.179688 381.953125 C 217.183594 381.816406 217.09375 381.691406 216.957031 381.664062 C 216.949219 381.664062 216.914062 381.65625 216.855469 381.644531 C 220.992188 369.71875 198.984375 367.890625 192.261719 367.609375 C 192.261719 367.609375 192.261719 367.609375 192.261719 367.605469 C 192.265625 367.449219 192.140625 367.316406 191.984375 367.316406 L 190.542969 367.28125 L 193.589844 362.710938 C 193.703125 362.730469 193.816406 362.753906 193.933594 362.773438 C 193.945312 362.773438 193.960938 362.773438 193.976562 362.773438 C 194.113281 362.773438 194.234375 362.675781 194.257812 362.535156 C 194.257812 362.527344 194.257812 362.523438 194.257812 362.519531 C 197.300781 362.847656 213.269531 364.328125 214.652344 359.71875 C 216.179688 354.625 193.816406 349.574219 187.46875 352.585938 C 186.238281 353.167969 185.019531 354.304688 183.867188 355.773438 C 183.859375 355.769531 183.859375 355.761719 183.851562 355.757812 C 183.722656 355.671875 183.546875 355.703125 183.457031 355.832031 L 183.4375 355.863281 L 180.910156 347.855469 L 180.875 348.089844 L 174.417969 323.449219 C 172.480469 316.0625 178.054688 308.84375 185.691406 308.84375 Z M 280.332031 391.511719 C 281.46875 391.867188 282.496094 392.160156 283.324219 392.386719 L 283.441406 392.832031 C 282.652344 392.832031 281.691406 392.875 280.722656 393.011719 Z M 277.535156 380.839844 L 269.847656 351.511719 L 267.28125 341.710938 L 266.90625 340.273438 L 260.929688 317.46875 C 259.957031 313.761719 257.296875 310.851562 253.910156 309.457031 C 253.273438 309.199219 252.613281 308.992188 251.929688 308.84375 L 252.441406 308.84375 C 252.957031 308.84375 253.460938 308.886719 253.960938 308.953125 C 258.605469 309.5625 262.503906 312.914062 263.714844 317.542969 L 267.867188 333.378906 L 268.242188 334.8125 L 270.746094 344.371094 L 280.292969 380.804688 C 279.382812 380.792969 278.453125 380.804688 277.535156 380.839844 Z M 282.140625 416.738281 C 283.808594 414.574219 284.664062 411.976562 284.628906 409.320312 C 285.511719 409.605469 286.445312 409.871094 287.386719 410.117188 C 287.050781 416.074219 282.121094 421.097656 275.75 421.097656 L 275.292969 421.097656 C 277.992188 420.503906 280.402344 418.988281 282.140625 416.738281 Z M 282.710938 400.597656 C 283.714844 400.753906 284.699219 400.859375 285.5625 400.925781 L 285.738281 401.597656 C 284.933594 401.789062 284.039062 402.042969 283.171875 402.363281 Z M 282.710938 400.597656 "/>
<g clip-path="url(#clip3)" clip-rule="nonzero">
<path style=" stroke:none;fill-rule:nonzero;fill:rgb(13.729858%,12.159729%,12.548828%);fill-opacity:1;" d="M 216.855469 381.644531 C 215.851562 381.441406 207.027344 379.714844 198.269531 379.113281 C 194.566406 378.855469 191.375 378.71875 188.878906 378.644531 C 185.144531 378.53125 182.957031 378.566406 182.921875 378.566406 C 182.761719 378.566406 182.636719 378.699219 182.640625 378.855469 C 182.640625 379.011719 182.769531 379.136719 182.925781 379.136719 C 182.925781 379.136719 182.929688 379.136719 182.929688 379.136719 C 182.964844 379.136719 185.207031 379.101562 189.03125 379.21875 C 191.496094 379.292969 194.617188 379.433594 198.230469 379.679688 C 207.449219 380.316406 216.75 382.203125 216.839844 382.222656 C 216.859375 382.226562 216.878906 382.226562 216.898438 382.226562 C 217.03125 382.226562 217.148438 382.136719 217.179688 382 C 217.179688 381.984375 217.175781 381.96875 217.179688 381.953125 C 217.183594 381.816406 217.09375 381.691406 216.957031 381.664062 C 216.949219 381.664062 216.914062 381.65625 216.855469 381.644531 Z M 283.171875 402.363281 C 282.992188 402.429688 282.8125 402.496094 282.636719 402.570312 L 282.09375 400.496094 C 282.300781 400.535156 282.507812 400.566406 282.710938 400.597656 Z M 332.097656 298.75 C 340.105469 298.75 347.238281 295.921875 351.839844 291.535156 L 351.773438 292.371094 C 347.058594 296.613281 339.992188 299.320312 332.097656 299.320312 C 322.542969 299.320312 314.199219 295.355469 309.777344 289.492188 L 309.824219 288.59375 C 314.011719 294.621094 322.421875 298.75 332.097656 298.75 Z M 299.273438 274.34375 C 299.273438 274.332031 299.269531 274.324219 299.269531 274.316406 C 299.273438 274.207031 299.335938 274.113281 299.429688 274.070312 C 299.464844 274.054688 299.5 274.046875 299.539062 274.046875 C 299.546875 274.046875 299.554688 274.042969 299.566406 274.042969 L 307.625 274.390625 L 310.414062 274.511719 C 311.265625 274.535156 312.078125 274.535156 312.875 274.519531 C 313.246094 274.515625 313.621094 274.507812 313.984375 274.492188 C 314.589844 274.46875 315.179688 274.433594 315.753906 274.390625 C 315.96875 274.375 316.179688 274.355469 316.386719 274.335938 C 316.707031 274.308594 317.019531 274.273438 317.328125 274.238281 C 323.59375 273.523438 327.671875 271.597656 330.230469 269.761719 C 330.734375 269.398438 331.1875 269.035156 331.578125 268.691406 C 333.375 267.101562 334.035156 265.800781 334.050781 265.769531 C 334.121094 265.625 334.289062 265.566406 334.429688 265.632812 C 334.445312 265.640625 334.453125 265.652344 334.464844 265.660156 C 334.578125 265.738281 334.625 265.886719 334.566406 266.015625 C 334.496094 266.160156 333.804688 267.527344 331.980469 269.15625 C 331.765625 269.347656 331.535156 269.542969 331.289062 269.738281 C 330.191406 270.613281 328.773438 271.527344 326.953125 272.351562 C 325.472656 273.019531 323.71875 273.625 321.667969 274.097656 C 320.105469 274.457031 318.367188 274.738281 316.433594 274.910156 C 315.429688 275 314.371094 275.058594 313.257812 275.085938 C 312.851562 275.09375 312.445312 275.101562 312.023438 275.101562 C 311.5 275.101562 310.960938 275.09375 310.414062 275.082031 C 310.40625 275.082031 310.402344 275.082031 310.394531 275.078125 L 299.542969 274.613281 C 299.394531 274.609375 299.28125 274.488281 299.273438 274.34375 Z M 290.953125 287.644531 C 290.863281 287.546875 290.851562 287.40625 290.925781 287.296875 L 296.429688 278.902344 L 296.933594 278.136719 C 296.960938 278.089844 297.003906 278.0625 297.050781 278.039062 C 297.082031 278.027344 297.109375 278.015625 297.144531 278.015625 C 297.1875 278.011719 297.230469 278.015625 297.273438 278.035156 C 297.289062 278.039062 297.308594 278.042969 297.328125 278.054688 C 297.457031 278.140625 297.496094 278.320312 297.410156 278.449219 L 297.179688 278.800781 L 295.777344 280.933594 L 292.015625 286.671875 L 299.722656 282.535156 L 307.027344 278.617188 L 307.8125 278.195312 C 307.949219 278.121094 308.121094 278.171875 308.199219 278.3125 C 308.25 278.414062 308.238281 278.53125 308.171875 278.617188 C 308.148438 278.648438 308.121094 278.675781 308.082031 278.699219 L 300.800781 282.605469 L 301.03125 283.066406 L 305.339844 291.675781 C 305.410156 291.816406 305.351562 291.988281 305.210938 292.058594 C 305.171875 292.078125 305.128906 292.089844 305.085938 292.089844 C 304.980469 292.089844 304.878906 292.03125 304.828125 291.933594 L 300.300781 282.875 L 291.296875 287.703125 C 291.183594 287.765625 291.039062 287.742188 290.953125 287.644531 Z M 302.027344 361.039062 C 302.035156 360.929688 302.109375 360.828125 302.222656 360.789062 C 302.367188 360.742188 302.53125 360.820312 302.582031 360.972656 C 302.585938 360.980469 302.597656 361.03125 302.617188 361.101562 C 302.703125 361.429688 302.882812 362.355469 302.429688 363.105469 C 302.125 363.605469 301.613281 363.917969 300.898438 364.03125 C 300.523438 364.09375 300.113281 364.128906 299.691406 364.128906 C 298.453125 364.128906 297.128906 363.839844 296.386719 363.109375 C 295.984375 362.710938 295.808594 362.214844 295.847656 361.671875 C 295.851562 361.617188 295.84375 361.5625 295.851562 361.507812 C 295.875 361.351562 296.023438 361.25 296.175781 361.269531 C 296.285156 361.285156 296.363281 361.359375 296.398438 361.453125 C 296.414062 361.496094 296.425781 361.542969 296.417969 361.59375 C 296.351562 362.027344 296.472656 362.390625 296.789062 362.703125 C 297.507812 363.410156 299.199219 363.734375 300.808594 363.46875 C 301.347656 363.382812 301.726562 363.160156 301.941406 362.8125 C 302.355469 362.132812 302.042969 361.160156 302.039062 361.152344 C 302.027344 361.113281 302.023438 361.078125 302.027344 361.039062 Z M 282.003906 397.894531 C 282.730469 397.5 283.152344 396.769531 283.152344 395.792969 C 283.152344 394.363281 282.261719 393.460938 280.820312 393.375 C 280.746094 393.371094 280.679688 393.359375 280.605469 393.359375 C 280.480469 393.359375 280.355469 393.367188 280.230469 393.378906 C 278.613281 393.515625 276.898438 394.519531 276.898438 395.792969 C 276.898438 397.160156 278.890625 398.222656 280.605469 398.222656 C 280.921875 398.222656 281.203125 398.175781 281.46875 398.101562 C 281.660156 398.050781 281.839844 397.984375 282.003906 397.894531 Z M 281.851562 397.324219 C 281.699219 397.425781 281.523438 397.5 281.324219 397.554688 C 281.109375 397.617188 280.871094 397.652344 280.605469 397.652344 C 279.191406 397.652344 277.46875 396.792969 277.46875 395.792969 C 277.46875 394.84375 279.011719 394.023438 280.375 393.9375 C 280.453125 393.933594 280.53125 393.929688 280.605469 393.929688 C 280.734375 393.929688 280.851562 393.941406 280.96875 393.957031 C 281.996094 394.078125 282.582031 394.730469 282.582031 395.792969 C 282.582031 396.492188 282.324219 397.011719 281.851562 397.324219 Z M 194.257812 362.535156 C 194.234375 362.675781 194.113281 362.773438 193.976562 362.773438 C 193.960938 362.773438 193.945312 362.773438 193.933594 362.773438 C 193.816406 362.753906 193.703125 362.730469 193.589844 362.710938 C 190.308594 362.121094 188.457031 360.578125 188.378906 360.511719 C 188.257812 360.410156 188.246094 360.230469 188.347656 360.109375 C 188.449219 359.992188 188.628906 359.976562 188.75 360.078125 C 188.765625 360.09375 190.691406 361.695312 194.019531 362.207031 C 194.171875 362.230469 194.273438 362.371094 194.257812 362.519531 C 194.257812 362.523438 194.257812 362.527344 194.257812 362.535156 Z M 208.710938 360.371094 C 210.023438 359.945312 210.628906 359.359375 210.515625 358.625 C 210.257812 356.984375 205.832031 355.363281 204.671875 355.359375 C 203.136719 355.359375 202.351562 356.757812 202.25 358.144531 C 202.164062 359.363281 202.597656 360.675781 203.597656 360.816406 C 203.96875 360.871094 204.421875 360.898438 204.917969 360.898438 C 206.125 360.898438 207.589844 360.734375 208.710938 360.371094 Z M 208.535156 359.828125 C 207.035156 360.3125 204.890625 360.425781 203.679688 360.253906 C 203.121094 360.171875 202.742188 359.265625 202.820312 358.1875 C 202.894531 357.144531 203.421875 355.929688 204.671875 355.929688 C 205.761719 355.929688 209.765625 357.515625 209.953125 358.714844 C 210.035156 359.230469 209.226562 359.605469 208.535156 359.828125 Z M 182.503906 367.382812 C 182.507812 367.226562 182.632812 367.105469 182.796875 367.105469 L 185.875 367.175781 L 190.542969 367.28125 L 191.984375 367.316406 C 192.140625 367.316406 192.265625 367.449219 192.261719 367.605469 C 192.261719 367.609375 192.261719 367.609375 192.261719 367.609375 C 192.253906 367.765625 192.132812 367.882812 191.976562 367.882812 C 191.976562 367.882812 191.972656 367.882812 191.972656 367.882812 L 186.023438 367.75 L 182.78125 367.675781 C 182.625 367.671875 182.5 367.539062 182.503906 367.382812 Z M 390.371094 213.898438 C 390.371094 213.714844 390.144531 195.816406 371.976562 194.566406 C 371.984375 194.375 371.992188 194.1875 371.992188 193.996094 C 371.992188 182.46875 362.648438 173.125 351.121094 173.125 C 349.152344 173.125 347.253906 173.402344 345.449219 173.910156 C 354.753906 168.4375 364.695312 176.109375 364.804688 176.195312 C 364.859375 176.234375 364.917969 176.253906 364.980469 176.253906 C 365.066406 176.253906 365.148438 176.21875 365.207031 176.144531 C 365.304688 176.023438 365.28125 175.84375 365.15625 175.746094 C 365.042969 175.652344 353.527344 166.761719 343.4375 174.589844 C 343.3125 174.640625 343.183594 174.6875 343.058594 174.738281 C 340.128906 166.058594 331.921875 159.808594 322.253906 159.808594 C 314.886719 159.808594 308.375 163.4375 304.390625 169 C 303.1875 167.988281 295.796875 162.445312 285.386719 169.410156 C 285.257812 169.5 285.222656 169.675781 285.3125 169.808594 C 285.363281 169.890625 285.457031 169.933594 285.546875 169.933594 C 285.601562 169.933594 285.65625 169.917969 285.707031 169.886719 C 294.816406 163.789062 301.339844 167.414062 303.445312 168.972656 C 301.417969 168.171875 299.214844 167.730469 296.90625 167.730469 C 287.039062 167.730469 279.042969 175.726562 279.042969 185.59375 C 279.042969 185.839844 279.050781 186.085938 279.0625 186.328125 C 271.667969 188.515625 266.273438 195.355469 266.273438 203.453125 C 266.273438 208.480469 268.351562 213.019531 271.691406 216.261719 C 271.625 216.359375 271.558594 216.453125 271.496094 216.550781 C 269.992188 217.238281 267.21875 219.207031 267.050781 224.394531 C 267.046875 224.554688 267.167969 224.683594 267.328125 224.691406 C 267.328125 224.691406 267.332031 224.691406 267.335938 224.691406 C 267.488281 224.691406 267.617188 224.566406 267.621094 224.414062 C 267.753906 220.324219 269.527344 218.390625 270.910156 217.496094 C 269.386719 220.125 268.507812 223.179688 268.507812 226.4375 C 268.507812 233.761719 272.917969 240.054688 279.226562 242.8125 C 278.234375 245.035156 277.675781 247.496094 277.675781 250.085938 C 277.675781 257.652344 282.378906 264.113281 289.019531 266.714844 C 287.554688 264.375 286.660156 261.636719 286.550781 258.6875 L 285.996094 244.292969 L 285.882812 241.292969 L 286 241.285156 C 285.9375 239.273438 285.882812 237.175781 285.835938 235.09375 C 285.71875 229.894531 285.644531 224.777344 285.566406 221.253906 C 285.5625 221.195312 285.5625 221.132812 285.5625 221.078125 C 285.457031 216.4375 285.929688 212.289062 286.847656 208.589844 C 286.855469 208.566406 286.859375 208.539062 286.867188 208.515625 C 286.863281 208.542969 286.863281 208.5625 286.859375 208.589844 C 286.667969 210.804688 286.558594 214.601562 287.339844 219.097656 C 287.363281 219.238281 287.484375 219.335938 287.621094 219.335938 C 287.636719 219.335938 287.652344 219.335938 287.667969 219.332031 C 287.824219 219.304688 287.929688 219.15625 287.902344 219 C 287.125 214.535156 287.238281 210.78125 287.429688 208.609375 C 287.464844 208.21875 287.5 207.871094 287.535156 207.585938 C 289.140625 208.195312 292.042969 208.429688 296.386719 205.636719 C 297.382812 204.996094 298.351562 204.195312 299.277344 203.292969 C 300.148438 202.449219 300.980469 201.515625 301.761719 200.558594 C 303.09375 198.921875 304.277344 197.203125 305.246094 195.671875 C 306.585938 193.558594 307.515625 191.804688 307.855469 191.144531 C 307.847656 191.183594 307.84375 191.226562 307.855469 191.269531 C 307.871094 191.339844 307.96875 191.734375 308.160156 192.332031 C 308.375 193.507812 308.898438 195.210938 310.144531 196.777344 C 310.238281 196.933594 310.335938 197.09375 310.433594 197.25 C 311.617188 199.097656 313.261719 200.890625 315.484375 201.820312 C 316.515625 202.253906 317.605469 202.472656 318.746094 202.472656 C 320.851562 202.472656 323.128906 201.738281 325.5625 200.273438 C 325.695312 200.191406 325.738281 200.015625 325.660156 199.878906 C 325.578125 199.746094 325.402344 199.703125 325.265625 199.785156 C 321.679688 201.945312 318.460938 202.453125 315.703125 201.296875 C 314.339844 200.722656 313.195312 199.785156 312.253906 198.710938 C 312.914062 199.152344 313.679688 199.542969 314.566406 199.863281 C 322.925781 202.851562 327.816406 195.613281 327.816406 195.613281 C 327.816406 195.613281 327.429688 198.753906 328.035156 202.960938 C 328.433594 205.726562 329.257812 208.953125 330.90625 212.054688 C 333.738281 217.382812 341 220.355469 343.453125 221.230469 C 343.617188 221.289062 343.757812 221.339844 343.875 221.378906 C 344.273438 221.046875 344.867188 220.578125 345.609375 220.066406 C 345.824219 219.917969 346.054688 219.761719 346.296875 219.609375 C 347.503906 218.839844 348.988281 218.050781 350.582031 217.566406 C 353.304688 216.734375 356.335938 216.796875 358.816406 219.375 C 359.386719 219.972656 359.929688 220.714844 360.433594 221.597656 L 351.832031 224.027344 L 348.378906 225.003906 L 347.667969 225.207031 L 345.886719 225.710938 L 345.25 225.890625 C 345.234375 225.894531 345.226562 225.902344 345.210938 225.910156 C 345.085938 225.96875 345.015625 226.105469 345.054688 226.242188 C 345.089844 226.367188 345.203125 226.449219 345.328125 226.449219 C 345.355469 226.449219 345.378906 226.445312 345.40625 226.4375 L 345.449219 226.425781 L 346.089844 226.242188 L 346.910156 226.011719 L 348.671875 225.515625 L 351.917969 224.597656 L 360.660156 222.125 C 360.675781 222.121094 360.691406 222.109375 360.707031 222.101562 C 362.273438 225.363281 361.03125 230.570312 356.929688 233.347656 C 356.460938 233.664062 355.953125 233.945312 355.410156 234.195312 C 355.15625 234.296875 354.132812 234.691406 352.816406 234.96875 C 352.613281 235.011719 352.410156 235.050781 352.195312 235.085938 C 351.898438 235.136719 351.59375 235.175781 351.28125 235.207031 C 350.71875 235.242188 350.128906 235.246094 349.515625 235.214844 L 349.972656 237.273438 L 350.15625 238.101562 L 350.515625 239.710938 L 350.714844 240.621094 L 352.816406 250.085938 L 352.8125 258.421875 L 352.804688 269.734375 L 355.8125 269.734375 C 357.765625 269.734375 359.648438 270.324219 361.242188 271.375 C 364.640625 268.484375 367.097656 264.523438 368.101562 260.015625 C 376.890625 257.554688 383.335938 249.492188 383.335938 239.921875 C 383.335938 236.367188 382.445312 233.023438 380.882812 230.09375 C 384.945312 226.285156 387.488281 220.875 387.488281 214.863281 C 387.488281 205.953125 381.902344 198.351562 374.042969 195.359375 C 389.589844 197.703125 389.800781 213.203125 389.800781 213.898438 C 389.800781 214.054688 389.929688 214.183594 390.085938 214.183594 C 390.246094 214.183594 390.371094 214.054688 390.371094 213.898438 Z M 308.003906 190.957031 C 307.96875 190.976562 307.9375 190.996094 307.914062 191.027344 C 307.96875 190.921875 308 190.855469 308 190.855469 C 308 190.855469 308 190.894531 308.003906 190.957031 Z M 280.46875 375.417969 C 280.46875 376.910156 282.652344 378.070312 284.53125 378.070312 C 286.246094 378.070312 287.3125 377.054688 287.3125 375.417969 C 287.3125 373.78125 286.246094 372.761719 284.53125 372.761719 C 282.652344 372.761719 280.46875 373.921875 280.46875 375.417969 Z M 281.039062 375.417969 C 281.039062 374.292969 282.957031 373.332031 284.53125 373.332031 C 285.9375 373.332031 286.742188 374.09375 286.742188 375.417969 C 286.742188 376.742188 285.9375 377.5 284.53125 377.5 C 282.957031 377.5 281.039062 376.539062 281.039062 375.417969 Z M 279.6875 391.308594 C 279.90625 391.378906 280.121094 391.449219 280.332031 391.511719 L 280.722656 393.011719 C 280.535156 393.035156 280.34375 393.066406 280.15625 393.101562 Z M 208.9375 372.847656 C 208.925781 372.847656 208.914062 372.851562 208.902344 372.851562 C 207.117188 372.863281 206.03125 374.367188 205.882812 375.839844 C 205.726562 377.335938 206.484375 378.484375 207.808594 378.773438 C 208.316406 378.882812 209.097656 378.9375 209.878906 378.9375 C 210.664062 378.9375 211.449219 378.882812 211.972656 378.773438 C 214.097656 378.328125 214.300781 377.210938 214.234375 376.585938 C 214.039062 374.792969 211.277344 372.847656 208.9375 372.847656 Z M 213.667969 376.644531 C 213.769531 377.605469 212.738281 378.03125 211.855469 378.214844 C 210.886719 378.417969 208.867188 378.417969 207.929688 378.214844 C 206.6875 377.945312 206.355469 376.800781 206.449219 375.898438 C 206.574219 374.675781 207.457031 373.433594 208.90625 373.421875 C 208.917969 373.421875 208.929688 373.417969 208.941406 373.417969 C 211.160156 373.417969 213.515625 375.257812 213.667969 376.644531 Z M 271.96875 305.984375 C 272.125 306.003906 272.234375 306.148438 272.210938 306.304688 L 268.242188 334.8125 L 267.867188 333.378906 L 271.648438 306.226562 C 271.667969 306.070312 271.816406 305.960938 271.96875 305.984375 Z M 313.75 227.082031 C 313.808594 228.433594 313.109375 229.566406 312.1875 229.605469 C 311.265625 229.648438 310.46875 228.582031 310.410156 227.226562 C 310.351562 225.875 311.050781 224.742188 311.972656 224.703125 C 312.894531 224.660156 313.691406 225.726562 313.75 227.082031 Z M 284.351562 406.910156 C 285.289062 406.71875 285.859375 406.027344 285.859375 405 C 285.859375 403.785156 285.070312 403.03125 283.800781 403.03125 C 283.652344 403.03125 283.503906 403.042969 283.355469 403.0625 C 283.167969 403.085938 282.980469 403.125 282.796875 403.175781 C 281.753906 403.460938 280.832031 404.160156 280.832031 405 C 280.832031 406.101562 282.410156 406.957031 283.777344 406.96875 C 283.785156 406.96875 283.792969 406.96875 283.800781 406.96875 C 283.996094 406.96875 284.175781 406.945312 284.351562 406.910156 Z M 284.21875 406.355469 C 284.089844 406.378906 283.953125 406.398438 283.800781 406.398438 C 283.746094 406.398438 283.691406 406.390625 283.636719 406.386719 C 282.523438 406.324219 281.402344 405.648438 281.402344 405 C 281.402344 404.488281 282.097656 403.957031 282.941406 403.722656 C 283.125 403.675781 283.3125 403.644531 283.503906 403.625 C 283.601562 403.613281 283.703125 403.601562 283.800781 403.601562 C 284.746094 403.601562 285.289062 404.113281 285.289062 405 C 285.289062 405.746094 284.902344 406.21875 284.21875 406.355469 Z M 195.46875 308.84375 L 194.386719 306.421875 C 193.910156 305.351562 194.691406 304.144531 195.867188 304.144531 L 203.769531 304.144531 C 202.5 299.882812 204.929688 296.425781 209.191406 296.425781 C 213.453125 296.425781 217.9375 299.882812 219.203125 304.144531 L 230.160156 304.144531 C 230.800781 304.144531 231.378906 304.519531 231.636719 305.101562 L 233.308594 308.84375 Z M 270.605469 384.183594 C 270.605469 385.542969 272.582031 386.597656 274.285156 386.597656 C 275.847656 386.597656 276.816406 385.671875 276.816406 384.183594 C 276.816406 382.695312 275.847656 381.769531 274.285156 381.769531 C 272.582031 381.769531 270.605469 382.824219 270.605469 384.183594 Z M 271.175781 384.183594 C 271.175781 383.191406 272.886719 382.339844 274.285156 382.339844 C 275.53125 382.339844 276.246094 383.011719 276.246094 384.183594 C 276.246094 385.355469 275.53125 386.027344 274.285156 386.027344 C 272.886719 386.027344 271.175781 385.175781 271.175781 384.183594 Z M 272.6875 420.8125 C 276.238281 420.8125 279.519531 419.203125 281.6875 416.390625 C 283.320312 414.277344 284.136719 411.722656 284.054688 409.128906 C 284.246094 409.191406 284.433594 409.257812 284.628906 409.320312 C 284.664062 411.976562 283.808594 414.574219 282.140625 416.738281 C 280.402344 418.988281 277.992188 420.503906 275.292969 421.097656 C 274.445312 421.285156 273.574219 421.382812 272.6875 421.382812 C 272.53125 421.382812 272.402344 421.257812 272.402344 421.097656 C 272.402344 420.941406 272.53125 420.8125 272.6875 420.8125 Z M 208.480469 388.46875 C 209.148438 388.847656 210.691406 389.105469 212.296875 389.105469 C 213.996094 389.105469 215.765625 388.816406 216.628906 388.070312 C 217.542969 387.285156 217.511719 386.589844 217.320312 386.144531 C 216.484375 384.171875 210.851562 383.171875 209.535156 383.289062 C 208.515625 383.382812 207.789062 384.074219 207.546875 385.191406 C 207.265625 386.496094 207.703125 388.023438 208.480469 388.46875 Z M 208.105469 385.3125 C 208.238281 384.699219 208.601562 383.945312 209.585938 383.855469 C 209.65625 383.851562 209.734375 383.847656 209.824219 383.847656 C 211.441406 383.847656 216.164062 384.875 216.796875 386.367188 C 216.859375 386.511719 217.046875 386.960938 216.257812 387.640625 C 214.792969 388.898438 209.972656 388.660156 208.761719 387.972656 C 208.265625 387.6875 207.859375 386.441406 208.105469 385.3125 Z M 249.382812 308.558594 C 250.253906 308.558594 251.105469 308.664062 251.929688 308.84375 C 252.613281 308.992188 253.273438 309.199219 253.910156 309.457031 C 257.296875 310.851562 259.957031 313.761719 260.929688 317.46875 L 266.90625 340.273438 L 267.28125 341.710938 L 269.847656 351.511719 L 277.535156 380.839844 C 277.339844 380.847656 277.144531 380.855469 276.953125 380.867188 L 269.65625 353.03125 L 267.078125 343.175781 L 266.699219 341.742188 L 260.378906 317.613281 C 259.46875 314.140625 257 311.394531 253.847656 310.046875 C 252.464844 309.457031 250.953125 309.128906 249.382812 309.128906 C 249.222656 309.128906 249.097656 309 249.097656 308.84375 C 249.097656 308.683594 249.222656 308.558594 249.382812 308.558594 Z M 179.914062 361.042969 L 183.054688 356.421875 L 183.4375 355.863281 L 183.457031 355.832031 C 183.546875 355.703125 183.722656 355.671875 183.851562 355.757812 C 183.859375 355.761719 183.859375 355.769531 183.867188 355.773438 C 183.984375 355.863281 184.011719 356.03125 183.925781 356.15625 L 183.65625 356.554688 L 183.25 357.152344 L 180.667969 360.953125 L 180.386719 361.363281 C 180.332031 361.445312 180.242188 361.488281 180.152344 361.488281 C 180.09375 361.488281 180.039062 361.472656 179.988281 361.441406 C 179.859375 361.351562 179.828125 361.175781 179.914062 361.042969 Z M 182.664062 396.617188 C 182.71875 396.648438 187.09375 399.265625 194.316406 399.402344 C 195.90625 399.429688 197.625 399.34375 199.472656 399.078125 C 199.617188 399.058594 199.75 399.152344 199.785156 399.292969 C 199.789062 399.300781 199.792969 399.308594 199.796875 399.320312 C 199.820312 399.476562 199.710938 399.621094 199.554688 399.640625 C 198.664062 399.769531 197.804688 399.855469 196.96875 399.90625 C 196.261719 399.953125 195.570312 399.976562 194.90625 399.976562 C 194.753906 399.976562 194.613281 399.96875 194.464844 399.96875 C 186.988281 399.863281 182.421875 397.136719 182.367188 397.101562 C 182.230469 397.019531 182.191406 396.84375 182.273438 396.710938 C 182.355469 396.578125 182.527344 396.535156 182.664062 396.617188 Z M 199.238281 397.25 C 199.457031 397.308594 199.859375 397.355469 200.351562 397.355469 C 201.359375 397.355469 202.757812 397.160156 203.789062 396.507812 C 205.042969 395.710938 205.09375 394.980469 204.914062 394.503906 C 204.375 393.058594 200.949219 392.269531 200.023438 392.410156 C 198.910156 392.578125 198.445312 393.910156 198.382812 394.996094 C 198.324219 395.988281 198.566406 397.066406 199.238281 397.25 Z M 198.953125 395.03125 C 199.007812 394.085938 199.382812 393.085938 200.109375 392.976562 C 200.167969 392.964844 200.234375 392.960938 200.316406 392.960938 C 201.359375 392.960938 204.015625 393.722656 204.382812 394.703125 C 204.53125 395.105469 204.230469 395.550781 203.484375 396.027344 C 202.183594 396.851562 200.023438 396.871094 199.386719 396.699219 C 199.140625 396.628906 198.898438 395.929688 198.953125 395.03125 Z M 182.875 389.773438 C 182.722656 389.746094 182.617188 389.601562 182.644531 389.445312 C 182.671875 389.289062 182.820312 389.1875 182.972656 389.210938 C 185.824219 389.695312 188.898438 390.054688 191.941406 390.328125 C 200.105469 391.054688 208.015625 391.121094 210.628906 391.121094 C 211.21875 391.121094 211.511719 391.121094 211.53125 391.117188 C 211.6875 391.117188 211.816406 391.242188 211.816406 391.398438 C 211.816406 391.527344 211.730469 391.632812 211.613281 391.671875 C 211.589844 391.679688 211.5625 391.6875 211.535156 391.6875 C 211.523438 391.6875 211.402344 391.6875 211.207031 391.691406 C 211.058594 391.691406 210.871094 391.691406 210.632812 391.691406 C 208.03125 391.691406 200.214844 391.625 192.09375 390.914062 C 188.972656 390.640625 185.808594 390.269531 182.875 389.773438 Z M 296.203125 227.082031 C 296.261719 228.433594 295.5625 229.566406 294.640625 229.605469 C 293.71875 229.648438 292.921875 228.582031 292.863281 227.226562 C 292.804688 225.875 293.503906 224.742188 294.425781 224.703125 C 295.347656 224.660156 296.144531 225.726562 296.203125 227.082031 Z M 357.75 280.542969 L 357.195312 280.125 L 355.25 278.675781 C 355.226562 278.660156 355.214844 278.636719 355.195312 278.617188 C 355.132812 278.53125 355.121094 278.417969 355.171875 278.320312 C 355.179688 278.304688 355.183594 278.289062 355.191406 278.277344 C 355.285156 278.148438 355.464844 278.125 355.589844 278.21875 L 355.738281 278.328125 L 356.121094 278.617188 L 357.515625 279.65625 L 357.75 279.832031 L 361.027344 282.277344 L 362.753906 283.566406 L 372.085938 290.539062 L 368.210938 281.351562 L 367.515625 279.703125 L 367.054688 278.617188 L 367.039062 278.574219 C 367.023438 278.539062 367.015625 278.5 367.015625 278.460938 C 367.015625 278.351562 367.082031 278.246094 367.191406 278.203125 C 367.25 278.175781 367.316406 278.175781 367.375 278.195312 C 367.457031 278.214844 367.527344 278.269531 367.5625 278.351562 L 367.613281 278.46875 L 367.628906 278.507812 L 367.675781 278.617188 L 368.230469 279.9375 L 368.738281 281.136719 L 373.023438 291.285156 C 373.070312 291.402344 373.035156 291.539062 372.933594 291.621094 C 372.832031 291.699219 372.691406 291.699219 372.589844 291.625 L 362.253906 283.90625 L 361.398438 285.023438 L 356.382812 291.566406 C 356.328125 291.640625 356.242188 291.679688 356.160156 291.679688 C 356.097656 291.679688 356.035156 291.660156 355.984375 291.621094 C 355.859375 291.523438 355.835938 291.347656 355.933594 291.222656 L 361.289062 284.226562 L 361.363281 284.128906 L 361.796875 283.5625 L 361.132812 283.070312 Z M 340.800781 428.175781 L 341.003906 428.210938 L 342.921875 428.542969 L 351.183594 381.136719 L 344.777344 380.640625 L 333.808594 379.789062 L 332.394531 379.679688 C 332.390625 379.679688 332.382812 379.675781 332.378906 379.675781 C 332.230469 379.65625 332.121094 379.523438 332.132812 379.375 C 332.144531 379.21875 332.273438 379.097656 332.441406 379.113281 L 332.605469 379.125 L 344.820312 380.074219 L 351.527344 380.59375 C 351.535156 380.59375 351.542969 380.59375 351.550781 380.59375 L 374.355469 382.363281 L 374.425781 381.21875 L 376.359375 349.640625 L 372.476562 327.800781 C 372.449219 327.644531 372.554688 327.496094 372.707031 327.46875 C 372.867188 327.441406 373.011719 327.546875 373.039062 327.699219 L 376.507812 347.21875 L 378 322.902344 C 378.007812 322.746094 378.152344 322.625 378.300781 322.636719 C 378.457031 322.644531 378.578125 322.78125 378.566406 322.9375 L 376.933594 349.625 C 376.933594 349.636719 376.933594 349.648438 376.929688 349.65625 L 374.929688 382.363281 L 387.066406 381.550781 C 387.214844 381.539062 387.359375 381.660156 387.371094 381.816406 C 387.378906 381.972656 387.261719 382.109375 387.105469 382.121094 L 376.289062 382.84375 L 392.074219 387.308594 C 392.226562 387.351562 392.3125 387.507812 392.269531 387.660156 C 392.226562 387.8125 392.070312 387.902344 391.917969 387.855469 L 374.574219 382.953125 L 351.753906 381.183594 L 343.480469 428.636719 L 392.125 437.046875 L 401.597656 438.6875 L 402.015625 438.757812 L 402.6875 438.875 C 402.84375 438.902344 402.945312 439.046875 402.917969 439.203125 C 402.894531 439.34375 402.777344 439.441406 402.640625 439.441406 C 402.625 439.441406 402.605469 439.4375 402.589844 439.4375 L 402.015625 439.335938 L 401.671875 439.277344 L 343.113281 429.152344 C 343.105469 429.152344 343.101562 429.152344 343.09375 429.148438 L 340.960938 428.78125 L 340.703125 428.738281 C 340.546875 428.710938 340.445312 428.5625 340.46875 428.410156 C 340.46875 428.40625 340.46875 428.40625 340.46875 428.40625 C 340.496094 428.25 340.648438 428.148438 340.800781 428.175781 Z M 301.179688 224.628906 C 301.21875 224.476562 301.371094 224.386719 301.527344 224.425781 C 301.679688 224.464844 301.769531 224.621094 301.730469 224.773438 L 299.65625 232.707031 L 297.757812 239.992188 C 297.722656 240.121094 297.605469 240.207031 297.480469 240.207031 C 297.457031 240.207031 297.433594 240.203125 297.410156 240.195312 C 297.257812 240.15625 297.164062 240 297.203125 239.847656 L 299.101562 232.582031 Z M 284.3125 392.847656 C 284.292969 392.808594 284.277344 392.769531 284.277344 392.722656 C 284.277344 392.695312 284.285156 392.667969 284.292969 392.644531 C 284.324219 392.523438 284.425781 392.433594 284.554688 392.429688 C 294.015625 392.105469 303.628906 393.832031 303.726562 393.851562 C 303.878906 393.878906 303.984375 394.027344 303.953125 394.183594 C 303.929688 394.320312 303.808594 394.417969 303.675781 394.417969 C 303.65625 394.417969 303.640625 394.414062 303.625 394.410156 C 303.527344 394.394531 293.972656 392.679688 284.570312 393 C 284.457031 393.007812 284.359375 392.941406 284.3125 392.847656 Z M 331.921875 417.78125 C 331.921875 420.042969 333.765625 421.886719 336.027344 421.886719 C 338.292969 421.886719 340.132812 420.042969 340.132812 417.78125 C 340.132812 415.515625 338.292969 413.675781 336.027344 413.675781 C 333.765625 413.675781 331.921875 415.515625 331.921875 417.78125 Z M 332.492188 417.78125 C 332.492188 415.832031 334.078125 414.246094 336.027344 414.246094 C 337.976562 414.246094 339.5625 415.832031 339.5625 417.78125 C 339.5625 419.730469 337.976562 421.316406 336.027344 421.316406 C 334.078125 421.316406 332.492188 419.730469 332.492188 417.78125 Z M 287.820312 400.878906 C 294.203125 399.71875 299.921875 401.34375 299.980469 401.363281 C 300.128906 401.40625 300.21875 401.5625 300.171875 401.714844 C 300.136719 401.839844 300.023438 401.921875 299.898438 401.921875 C 299.875 401.921875 299.847656 401.917969 299.820312 401.910156 C 299.765625 401.894531 294.175781 400.304688 287.921875 401.4375 C 287.777344 401.464844 287.617188 401.363281 287.589844 401.207031 C 287.578125 401.148438 287.59375 401.09375 287.617188 401.042969 C 287.652344 400.960938 287.722656 400.894531 287.820312 400.878906 Z M 286.484375 381.449219 C 286.34375 381.460938 286.195312 381.328125 286.1875 381.171875 C 286.1875 381.152344 286.195312 381.132812 286.199219 381.113281 C 286.222656 380.984375 286.328125 380.882812 286.464844 380.878906 C 286.546875 380.875 286.628906 380.875 286.714844 380.871094 C 294.757812 380.625 302.84375 381.835938 305.046875 382.199219 C 305.414062 382.257812 305.621094 382.296875 305.636719 382.300781 C 305.789062 382.328125 305.894531 382.476562 305.867188 382.628906 C 305.839844 382.769531 305.71875 382.863281 305.585938 382.863281 C 305.566406 382.863281 305.550781 382.863281 305.535156 382.859375 C 305.519531 382.859375 305.339844 382.824219 305.019531 382.773438 C 302.910156 382.425781 294.640625 381.171875 286.484375 381.449219 Z M 302.796875 370.382812 C 302.734375 370.378906 302.675781 370.371094 302.613281 370.367188 C 302.484375 370.363281 302.386719 370.273438 302.355469 370.160156 C 302.351562 370.136719 302.347656 370.117188 302.347656 370.09375 C 302.347656 370.085938 302.34375 370.078125 302.34375 370.066406 C 302.351562 369.910156 302.496094 369.789062 302.644531 369.800781 C 303.492188 369.847656 304.285156 369.925781 305.027344 370.023438 C 305.246094 370.050781 305.453125 370.085938 305.664062 370.117188 C 310.351562 370.84375 312.761719 372.394531 312.882812 372.472656 C 313.011719 372.558594 313.050781 372.734375 312.960938 372.867188 C 312.90625 372.949219 312.816406 372.996094 312.722656 372.996094 C 312.671875 372.996094 312.617188 372.980469 312.566406 372.949219 C 312.539062 372.929688 310.171875 371.414062 305.632812 370.691406 C 304.765625 370.554688 303.824219 370.445312 302.796875 370.382812 Z M 291.167969 214.757812 C 291.027344 214.757812 290.90625 214.648438 290.890625 214.503906 C 290.875 214.351562 290.988281 214.214844 291.144531 214.199219 L 298.421875 213.496094 C 298.574219 213.480469 298.710938 213.59375 298.726562 213.75 C 298.742188 213.902344 298.628906 214.039062 298.476562 214.054688 L 291.195312 214.757812 C 291.1875 214.757812 291.179688 214.757812 291.167969 214.757812 Z M 310.128906 213.734375 C 310.152344 213.578125 310.292969 213.480469 310.449219 213.496094 L 318.519531 214.710938 C 318.671875 214.734375 318.777344 214.878906 318.753906 215.03125 C 318.734375 215.167969 318.613281 215.269531 318.476562 215.269531 C 318.464844 215.269531 318.449219 215.269531 318.4375 215.265625 L 310.363281 214.050781 C 310.210938 214.027344 310.105469 213.886719 310.128906 213.734375 Z M 310.128906 213.734375 "/>
</g>
</g>
</svg>
